<?xml version="1.0" encoding="utf-8"?>
<!-- Generator: Adobe Illustrator 22.0.0, SVG Export Plug-In . SVG Version: 6.00 Build 0)  -->
<svg version="1.1" id="Слой_1" xmlns="http://www.w3.org/2000/svg" xmlns:xlink="http://www.w3.org/1999/xlink" x="0px" y="0px"
	 viewBox="0 0 992.1 221.1" style="enable-background:new 0 0 992.1 221.1;" xml:space="preserve">
<style type="text/css">
	.st0{fill:#F2F2F2;}
	.st1{fill:#E6A55E;}
	.st2{fill:#F1970A;}
	.st3{fill:#F1970A;stroke:#FFFFFF;stroke-width:0.75;stroke-miterlimit:10;}
	.st4{fill:#FEFDFC;}
	.st5{fill:#F1970A;stroke:#FFFFFF;stroke-miterlimit:10;}
	.st6{fill:#5A3210;}
	.st7{fill:#744500;}
	.st8{fill:#957250;}
	.st9{fill:#FEFDFD;}
	.st10{fill:#FFFFFF;}
	.st11{fill:none;stroke:#FFFFFF;stroke-width:4;stroke-miterlimit:10;}
	.st12{fill:none;stroke:#744500;stroke-width:2;stroke-miterlimit:10;}
	.st13{fill:none;stroke:#603813;stroke-width:2.5;stroke-miterlimit:10;}
</style>
<g>
	<path class="st0" d="M238.3,177.9c-2.4-2.1-2.9-4.9-2.9-7.2c0-1.6,0.6-4.5,2.7-6.6c1.5-1.5,3.7-2.6,7.4-2.6c1,0,2.3,0.1,3.5,0.3
		c0.9,0.2,1.7,0.2,2.6,0.4c0.2,0,0.2,0.1,0.2,0.3s-0.1,0.5-0.1,1.4c0,0.8,0,2.1-0.1,2.5c0,0.4-0.1,0.5-0.2,0.5
		c-0.2,0-0.2-0.2-0.2-0.5c0-0.9-0.4-1.9-1-2.5c-0.8-0.7-2.7-1.4-4.9-1.4c-3.2,0-4.7,0.9-5.6,1.8c-1.8,1.7-2.2,3.9-2.2,6.3
		c0,4.6,3.6,8.9,8.8,8.9c1.8,0,3.3-0.2,4.2-1.2c0.5-0.5,0.8-1.6,0.9-2c0-0.3,0.1-0.4,0.2-0.4c0.1,0,0.2,0.2,0.2,0.4
		s-0.3,2.3-0.5,3.1c-0.1,0.5-0.2,0.5-0.6,0.7c-1,0.4-2.8,0.6-4.4,0.6C242.7,180.5,240.2,179.6,238.3,177.9z"/>
	<path class="st0" d="M254.7,172.3c0-3.2,2.5-8.1,8.5-8.1c4.8,0,8.5,2.9,8.5,7.7c0,4.6-3.4,8.4-8.6,8.4
		C257.1,180.4,254.7,176,254.7,172.3z M269.4,172.6c0-4.9-3-7.6-6.3-7.6c-3.4,0-6.1,2.1-6.1,6.7c0,4.8,2.6,7.9,6.7,7.9
		C265.3,179.6,269.4,178.8,269.4,172.6z"/>
	<path class="st0" d="M276.6,170.5c0-3.2,0-3.8,0-4.4c0-0.7-0.2-1-0.9-1.1c-0.2,0-0.5,0-0.6,0c-0.2,0-0.3-0.1-0.3-0.2
		c0-0.1,0.1-0.2,0.4-0.2c1,0,2.5,0.1,2.5,0.1c0.6,0,1.4-0.1,2.3-0.1c3.6,0,4.4,2,4.4,3.1c0,1.8-1,2.9-2,3.7c1.6,0.5,3.7,2,3.7,4.3
		s-1.8,4.5-5.5,4.5c-0.4,0-0.9,0-1.5,0c-0.7,0-1.3-0.1-1.4-0.1c-0.8,0-1.4,0.1-2.2,0.1c-0.2,0-0.3,0-0.3-0.1s0-0.2,0.3-0.2
		c0.2,0,0.2,0,0.4,0c0.4-0.1,0.6-0.6,0.6-1.2c0.1-0.9,0.1-2.6,0.1-4.4V170.5z M278.5,170.9c0,0.2,0,0.2,0.1,0.2s0.4,0.1,1.2,0.1
		c1.2,0,1.6-0.1,2.1-0.6c0.4-0.5,0.6-1.1,0.6-1.9c0-1.7-0.8-3.5-2.8-3.5c-0.2,0-0.7,0-0.9,0.1c-0.2,0-0.3,0.1-0.3,0.2L278.5,170.9
		L278.5,170.9z M278.5,173c0,1.5,0,4.2,0,4.4c0.1,1.1,0,1.4,0.8,1.7c0.6,0.3,1.6,0.3,1.8,0.3c1,0,2.9-0.5,2.9-2.7
		c0-1.2-0.4-3.1-2.1-4.2c-0.7-0.4-1.2-0.5-1.7-0.5c-0.4,0-1.3,0-1.6,0c-0.1,0-0.1,0-0.1,0.1L278.5,173L278.5,173z"/>
	<path class="st0" d="M290.9,170.5c0-3.4,0-3.8,0-4.4c0-0.6-0.2-1-0.9-1.2c-0.2,0-0.6,0-0.8,0c0,0-0.1,0-0.1-0.1s0.1-0.2,0.3-0.2
		c1,0,2.4,0.1,2.5,0.1c0.5,0,1.7-0.1,2.7-0.1c2.7,0,3.6,0.9,4,1.2c0.5,0.4,1.1,1.4,1.1,2.7c0,2.7-2.2,4.7-5.3,4.7
		c-0.1,0-0.3,0-0.5,0c-0.1,0-0.2,0-0.2-0.1c0-0.2,0.1-0.2,0.6-0.2c1.9,0,3.5-1.3,3.5-3.4c0-0.3,0.1-1.8-1-2.9
		c-1.2-1.3-2.6-1.1-3-1.1c-0.3,0-0.7,0-0.8,0.1c-0.1,0-0.1,0.2-0.1,0.4v8.4c0,1.9,0,3.6,0.1,4.5c0.1,0.6,0.2,1.1,0.8,1.1
		c0.3,0,0.8,0.1,1,0.1c0.1,0,0.1,0,0.1,0.1s-0.1,0.2-0.3,0.2c-1.3,0-2.6-0.1-2.7-0.1c0,0-1.5,0.1-2.1,0.1c-0.2,0-0.3,0-0.3-0.2
		c0-0.1,0-0.1,0.2-0.1s0.4,0,0.6-0.1c0.4-0.1,0.6-0.6,0.6-1.1c0.1-0.9,0.1-2.6,0.1-4.4v-4H290.9z"/>
	<path class="st0" d="M304.3,170.5c0-3.2,0-3.8,0-4.4c0-0.7-0.2-1-0.9-1.2c-0.1,0-0.4,0-0.6,0s-0.3-0.1-0.3-0.1
		c0-0.1,0.1-0.2,0.4-0.2c0.5,0,1.1,0,2.5,0.1c0.1,0,4.4,0,4.9,0s0.8,0,0.9-0.1c0.1,0,0.2-0.1,0.3-0.1c0,0,0.1,0,0.1,0.2
		c0,0.1-0.1,0.5-0.2,1.1c0,0.4,0,0.8-0.1,1.3c0,0.2,0,0.4-0.2,0.4c-0.1,0-0.2-0.1-0.2-0.3c0-0.4-0.1-0.6-0.2-0.8
		c-0.1-0.5-0.4-0.7-1.6-0.7c-0.3,0-2.7,0-2.8,0c-0.1,0-0.1,0-0.1,0.2v5.5c0,0.1,0,0.2,0.1,0.2c0.3,0,2.8,0,3.3-0.1
		c0.6,0,0.9-0.1,1.1-0.4c0.1-0.1,0.2-0.2,0.3-0.2c0,0,0.1,0,0.1,0.1s-0.1,0.6-0.2,1.3s-0.1,1.2-0.1,1.5c0,0.2-0.1,0.3-0.2,0.3
		s-0.1-0.1-0.1-0.3c0-0.1,0-0.4-0.1-0.6c-0.1-0.3-0.2-0.7-1.2-0.7c-0.6,0-2.5-0.1-2.9-0.1c-0.1,0-0.2,0.1-0.2,0.2v1.8
		c0,0.8,0,2.9,0,3.3c0,0.9,0.2,1.4,0.7,1.6c0.4,0.2,0.9,0.2,1.8,0.2c0.5,0,1.2,0,1.8-0.1c0.7-0.2,0.9-0.7,1.1-1.6
		c0-0.2,0.1-0.3,0.2-0.3s0.1,0.2,0.1,0.4s-0.2,1.7-0.3,2.1c-0.1,0.5-0.3,0.5-1.1,0.5c-1.6,0-2.3,0-3.1,0c-0.8,0-2-0.1-2.9-0.1
		c-0.6,0-1,0.1-1.6,0.1c-0.2,0-0.3,0-0.3-0.2c0-0.1,0.1-0.2,0.2-0.2s0.3,0,0.5-0.1c0.4-0.1,0.7-0.4,0.8-1.9c0-0.8,0-1.8,0-3.7v-3.9
		H304.3z"/>
	<path class="st0" d="M333.1,177.5c0.1,0.6,0.2,1.9,1.2,2.2c0.4,0.1,0.9,0.1,1.2,0.2c0.1,0,0.3,0,0.3,0.1s-0.1,0.2-0.4,0.2
		c-0.4,0-3.1-0.1-3.8-0.1c-0.5,0-0.7-0.1-0.7-0.2c0-0.1,0.1-0.2,0.2-0.2s0.2-0.3,0.1-0.7l-1.1-10.4L325,179
		c-0.5,0.9-0.5,1.2-0.8,1.2c-0.1,0-0.3-0.2-0.7-1c-0.4-0.7-2.3-4.6-2.5-4.8c-0.1-0.3-2.5-5-2.7-5.5l-0.9,9.3c0,0.3,0,0.6,0,0.9
		c0,0.3,0.1,0.6,0.6,0.7c0.3,0,0.4,0,0.7,0.1c0.2,0,0.2,0.1,0.2,0.1c0,0.2-0.1,0.2-0.4,0.2c-0.8,0-1.8-0.1-2-0.1s-1.3,0.1-1.9,0.1
		c-0.2,0-0.4,0-0.4-0.2c0,0,0.1-0.1,0.3-0.1c0.2,0,0.2,0,0.5,0c0.6,0,0.8-0.6,0.9-1.6l1.6-13.3c0-0.4,0.1-0.6,0.3-0.6
		c0.1,0,0.2,0.1,0.4,0.4l6.5,12.6l6.2-12.6c0.1-0.3,0.2-0.4,0.4-0.4c0.1,0,0.2,0.2,0.2,0.6L333.1,177.5z"/>
	<path class="st0" d="M339.5,170.5c0-3.2,0-3.8,0-4.4c0-0.7-0.2-1-0.9-1.2c-0.1,0-0.4,0-0.6,0s-0.3-0.1-0.3-0.1
		c0-0.1,0.1-0.2,0.4-0.2c0.5,0,1.1,0,2.5,0.1c0.1,0,4.4,0,4.9,0s0.8,0,0.9-0.1c0.1,0,0.2-0.1,0.3-0.1c0,0,0.1,0,0.1,0.2
		c0,0.1-0.1,0.5-0.2,1.1c0,0.4,0,0.8-0.1,1.3c0,0.2,0,0.4-0.2,0.4c-0.1,0-0.2-0.1-0.2-0.3c0-0.4-0.1-0.6-0.2-0.8
		c-0.1-0.5-0.4-0.7-1.6-0.7c-0.3,0-2.7,0-2.8,0c-0.1,0-0.1,0-0.1,0.2v5.5c0,0.1,0,0.2,0.1,0.2c0.3,0,2.8,0,3.3-0.1
		c0.6,0,0.9-0.1,1.1-0.4c0.1-0.1,0.2-0.2,0.3-0.2c0,0,0.1,0,0.1,0.1s-0.1,0.6-0.2,1.3s-0.1,1.2-0.1,1.5c0,0.2-0.1,0.3-0.2,0.3
		s-0.1-0.1-0.1-0.3c0-0.1,0-0.4-0.1-0.6c-0.1-0.3-0.2-0.7-1.2-0.7c-0.6,0-2.5-0.1-2.9-0.1c-0.1,0-0.2,0.1-0.2,0.2v1.8
		c0,0.8,0,2.9,0,3.3c0,0.9,0.2,1.4,0.7,1.6c0.4,0.2,0.9,0.2,1.8,0.2c0.5,0,1.2,0,1.8-0.1c0.7-0.2,0.9-0.7,1.1-1.6
		c0-0.2,0.1-0.3,0.2-0.3s0.1,0.2,0.1,0.4s-0.2,1.7-0.3,2.1c-0.1,0.5-0.3,0.5-1.1,0.5c-1.6,0-2.3,0-3.1,0c-0.8,0-2-0.1-2.9-0.1
		c-0.6,0-1,0.1-1.6,0.1c-0.2,0-0.3,0-0.3-0.2c0-0.1,0.1-0.2,0.2-0.2s0.3,0,0.5-0.1c0.4-0.1,0.7-0.4,0.8-1.9c0-0.8,0-1.8,0-3.7v-3.9
		H339.5z"/>
	<path class="st0" d="M363.2,171c0.1,0,0.1,0,0.1-0.1v-0.4c0-3.2,0-3.8,0-4.4c0-0.7-0.1-1-0.9-1.1c-0.2,0-0.4,0-0.6,0
		s-0.3-0.1-0.3-0.2c0-0.1,0.1-0.2,0.3-0.2c1,0,2.5,0.1,2.6,0.1s1.5-0.1,2.2-0.1c0.2,0,0.4,0,0.4,0.2c0,0.1-0.1,0.2-0.3,0.2
		c-0.1,0-0.3,0-0.5,0c-0.7,0.1-0.8,0.5-0.8,1.2s0,1.2,0,4.4v3.6c0,2,0,3.6,0.1,4.4c0.1,0.6,0.2,1.1,0.8,1.1c0.3,0,0.6,0.1,0.9,0.1
		c0.2,0,0.3,0.1,0.3,0.2c0,0.1-0.1,0.2-0.4,0.2c-1.2,0-2.6-0.1-2.7-0.1s-1.5,0.1-2.2,0.1c-0.2,0-0.4,0-0.4-0.2
		c0-0.1,0.1-0.1,0.3-0.1s0.4,0,0.6,0c0.4-0.1,0.5-0.6,0.6-1.2c0.1-0.9,0.1-2.4,0.1-4.4v-2.2c0-0.1-0.1-0.1-0.1-0.1h-8.8
		c-0.1,0-0.1,0-0.1,0.1v2.2c0,2,0,3.5,0.1,4.4c0.1,0.5,0.2,1,0.8,1.1c0.3,0,0.7,0.1,0.9,0.1c0.2,0,0.3,0.1,0.3,0.2
		c0,0.1-0.1,0.2-0.3,0.2c-1.2,0-2.7-0.1-2.8-0.1c-0.1,0-1.6,0.1-2.2,0.1c-0.2,0-0.4,0-0.4-0.2c0-0.1,0-0.2,0.3-0.2
		c0.2,0,0.4,0,0.6-0.1c0.4-0.1,0.5-0.6,0.6-1.1c0.1-0.9,0.1-2.5,0.1-4.5v-3.6c0-3.2,0-3.8,0-4.5c0-0.6-0.2-1.1-0.9-1.2
		c-0.2,0-0.5,0-0.7,0s-0.3-0.1-0.3-0.1c0-0.1,0.1-0.2,0.4-0.2c1,0,2.2,0.1,2.5,0.1c0.1,0,1.5-0.1,2.2-0.1c0.2,0,0.4,0,0.4,0.2
		c0,0.1-0.1,0.1-0.2,0.1s-0.2,0-0.5,0c-0.6,0.1-0.8,0.5-0.8,1.2s0,1.2,0,4.4v0.4c0,0.1,0.1,0.1,0.1,0.1L363.2,171L363.2,171z"/>
	<path class="st0" d="M383.5,171c0.1,0,0.1,0,0.1-0.1v-0.4c0-3.2,0-3.8,0-4.4c0-0.7-0.1-1-0.9-1.1c-0.2,0-0.4,0-0.6,0
		s-0.3-0.1-0.3-0.2c0-0.1,0.1-0.2,0.3-0.2c1,0,2.5,0.1,2.6,0.1s1.5-0.1,2.2-0.1c0.2,0,0.4,0,0.4,0.2c0,0.1-0.1,0.2-0.3,0.2
		c-0.1,0-0.3,0-0.5,0c-0.7,0.1-0.8,0.5-0.8,1.2s0,1.2,0,4.4v3.6c0,2,0,3.6,0.1,4.4c0.1,0.6,0.2,1.1,0.8,1.1c0.3,0,0.6,0.1,0.9,0.1
		c0.2,0,0.3,0.1,0.3,0.2c0,0.1-0.1,0.2-0.4,0.2c-1.2,0-2.6-0.1-2.7-0.1s-1.5,0.1-2.2,0.1c-0.2,0-0.4,0-0.4-0.2
		c0-0.1,0.1-0.1,0.3-0.1c0.2,0,0.4,0,0.6,0c0.4-0.1,0.5-0.6,0.6-1.2c0.1-0.9,0.1-2.4,0.1-4.4v-2.2c0-0.1-0.1-0.1-0.1-0.1h-8.8
		c-0.1,0-0.1,0-0.1,0.1v2.2c0,2,0,3.5,0.1,4.4c0.1,0.5,0.2,1,0.8,1.1c0.3,0,0.7,0.1,0.9,0.1c0.2,0,0.3,0.1,0.3,0.2
		c0,0.1-0.1,0.2-0.3,0.2c-1.2,0-2.7-0.1-2.8-0.1c-0.1,0-1.6,0.1-2.2,0.1c-0.2,0-0.4,0-0.4-0.2c0-0.1,0-0.2,0.3-0.2
		c0.2,0,0.4,0,0.6-0.1c0.4-0.1,0.5-0.6,0.6-1.1c0.1-0.9,0.1-2.5,0.1-4.5v-3.6c0-3.2,0-3.8,0-4.5c0-0.6-0.2-1.1-0.9-1.2
		c-0.2,0-0.5,0-0.7,0s-0.3-0.1-0.3-0.1c0-0.1,0.1-0.2,0.4-0.2c1,0,2.2,0.1,2.5,0.1c0.1,0,1.5-0.1,2.2-0.1c0.2,0,0.4,0,0.4,0.2
		c0,0.1-0.1,0.1-0.2,0.1s-0.2,0-0.5,0c-0.6,0.1-0.8,0.5-0.8,1.2s0,1.2,0,4.4v0.4c0,0.1,0.1,0.1,0.1,0.1L383.5,171L383.5,171z"/>
	<path class="st0" d="M391.7,180.1c-0.2,0-0.3,0-0.3-0.2c0-0.1,0.1-0.1,0.3-0.1c0.1,0,0.3,0,0.6,0c0.4-0.1,0.5-0.6,0.6-1.2
		c0.1-0.9,0.1-2.6,0.1-4.4v-3.6c0-3.2,0-3.8,0-4.4c0-0.7-0.2-1-0.7-1.1c-0.2,0-0.4-0.1-0.6-0.1s-0.3-0.1-0.3-0.2
		c0-0.1,0.1-0.2,0.4-0.2c0.7,0,2,0.1,2.1,0.1s1.5-0.1,2.2-0.1c0.2,0,0.3,0,0.3,0.2c0,0.1-0.1,0.1-0.2,0.1s-0.3,0-0.5,0
		c-0.6,0.1-0.7,0.5-0.7,1.2s0,1.2,0,4.4v0.5c0,0.1,0,0.1,0.1,0.1c0.3,0,0.4,0,0.5,0c2.6,0,3.6,0.3,4.5,0.8c1.4,0.8,2.4,2,2.4,3.8
		c0,1.9-1.6,4.5-5.3,4.5c-0.9,0-2.5-0.1-3.1-0.1C393.8,180.1,392.4,180.1,391.7,180.1z M394.8,173.3c0,2,0,3.8,0,4.8
		c0,0.6,0.3,0.9,0.6,1.1c0.5,0.2,1.1,0.3,1.8,0.3c1.7,0,3-1.1,3-3.3c0-1.4-0.4-2.6-1.5-3.5c-0.9-0.7-2.3-0.9-3.9-0.9
		c0,0-0.1,0-0.1,0.1v1.4H394.8z M405.7,170.5c0-3.2,0-3.8,0-4.4c0-0.7-0.2-1-0.7-1.1c-0.2,0-0.4,0-0.6-0.1c-0.2,0-0.3-0.1-0.3-0.2
		c0-0.1,0.1-0.2,0.4-0.2c0.8,0,2.1,0.1,2.2,0.1s1.5-0.1,2.2-0.1c0.2,0,0.4,0,0.4,0.2c0,0.1-0.1,0.1-0.3,0.2c-0.1,0-0.3,0-0.4,0
		c-0.7,0.1-0.8,0.5-0.8,1.2s0,1.2,0,4.4v3.6c0,1.9,0,3.6,0.1,4.4c0.1,0.7,0.2,1,0.8,1.1c0.3,0.1,0.8,0.1,0.9,0.1
		c0.2,0,0.3,0.1,0.3,0.2c0,0.1-0.1,0.2-0.3,0.2c-1.2,0-2.6-0.1-2.8-0.1c-0.1,0-1.5,0.1-2.2,0.1c-0.2,0-0.4,0-0.4-0.2
		c0-0.1,0.1-0.2,0.3-0.2c0.1,0,0.4,0,0.6-0.1c0.4-0.1,0.5-0.6,0.6-1.2c0.1-0.9,0.1-2.6,0.1-4.4v-3.5H405.7z"/>
	<path class="st0" d="M416.7,177.5c2.9-3.4,8.3-9.9,10.1-11.9c0.8-0.9,1.2-1.3,1.4-1.3c0.2,0,0.3,0.2,0.3,1.9c0,3.9,0,7.6,0.1,11.4
		c0,1.7,0.2,2.1,0.9,2.2c0.1,0,0.6,0.1,0.9,0.1s0.3,0.1,0.3,0.2c0,0.1-0.1,0.1-0.3,0.1c-0.8,0-2.8-0.1-3.2-0.1c-0.5,0-1.2,0.1-2,0.1
		c-0.3,0-0.3,0-0.3-0.1s0-0.1,0.3-0.2c0.2,0,0.4,0,0.6-0.1c0.7-0.1,0.7-1.1,0.8-2.6c0.1-3.3,0-6.6,0.1-10.1
		c-1.1,1.4-10.1,12-10.9,12.8c-0.5,0.5-0.7,0.5-0.8,0.5c-0.2,0-0.3-0.1-0.3-0.9c0-3.4,0-8.1,0-12.1c0-2.3-0.3-2.4-1-2.5
		c-0.3,0-0.5,0-0.7,0s-0.2-0.1-0.2-0.2c0-0.1,0.2-0.2,0.5-0.2c0.7,0,2.1,0.1,2.5,0.1c0.8,0,1.6-0.1,2.2-0.1c0.3,0,0.4,0,0.4,0.1
		s0,0.2-0.3,0.2s-0.4,0-0.6,0c-0.6,0.1-0.8,0.4-0.8,2.1V177.5z M417.7,160.1c0.2-0.3,0.6-0.6,0.8-0.6c0.1,0,0.1,0,0.1,0.1
		c0.1,0.7,1.2,1.6,3.4,1.6c1.6,0,2.7-0.4,3.6-1.5c0.2-0.2,0.2-0.2,0.3-0.2c0.1,0,0.1,0.1,0,0.3c-1.1,1.5-2.8,2.4-4.8,2.4
		c-0.9,0-2-0.1-2.8-0.8c-0.4-0.3-0.7-0.7-0.7-1C417.6,160.4,417.7,160.3,417.7,160.1z"/>
	<path class="st0" d="M443.9,168.8c0-3.8,0-4.5,0-5.2c0-0.8-0.2-1.2-1-1.4c-0.2,0-0.6-0.1-0.7-0.1c-0.2,0-0.3,0-0.3-0.1
		s0.1-0.2,0.4-0.2c1.1,0,2.6,0.1,2.7,0.1c0.6,0,1.5-0.1,2.6-0.1c4,0,4.9,2.4,4.9,3.6c0,2-1.1,3.2-2.3,4.4c1.8,0.6,4.2,2.3,4.2,5.1
		c0,2.6-2,5.3-6.2,5.3c-0.3,0-1,0-1.7-0.1c-0.7,0-1.4-0.1-1.5-0.1c-0.8,0-1.5,0.1-2.4,0.1c-0.3,0-0.4,0-0.4-0.2c0-0.1,0-0.2,0.4-0.2
		c0.2,0,0.4,0,0.6-0.1c0.5-0.1,0.6-0.7,0.7-1.4c0.1-1,0.1-2.9,0.1-5.3v-4.1H443.9z M445.8,169.4c0,0.2,0,0.2,0.2,0.3
		c0.1,0,0.6,0.1,1.5,0.1c1.4,0,1.7,0,2.2-0.6s0.9-1.5,0.9-2.5c0-2-0.9-4.2-3.3-4.2c-0.3,0-0.8,0-1.2,0.1c-0.2,0-0.3,0.1-0.3,0.3
		L445.8,169.4L445.8,169.4z M445.8,171.9c0,1.9,0,4.9,0,5.2c0.1,1.2,0.1,1.5,0.8,1.9c0.7,0.3,1.7,0.4,2.1,0.4c1.3,0,3.4-0.7,3.4-3.4
		c0-1.5-0.5-3.6-2.4-4.9c-0.8-0.6-1.4-0.6-2-0.7c-0.3,0-1.5,0-1.9,0c-0.1,0-0.1,0-0.1,0.2v1.3H445.8z"/>
	<path class="st0" d="M457.8,179.9c-0.3-0.2-0.4-0.4-0.4-0.7c0-0.7,0-1.7,0.1-2.2c0-0.2,0.1-0.3,0.2-0.3s0.1,0,0.2,0.3
		c0.1,1.7,1.2,2.7,3.4,2.7c2.4,0,4-1.3,4-3.7c0-2.8-2.1-4-4.3-4.1c-0.6,0-0.8-0.1-0.8-0.2c0-0.1,0.2-0.2,0.8-0.3
		c2.1-0.2,3.3-1.2,3.3-3.2c0-1.5-0.7-3.2-3.2-3.2c-1.9,0-2.6,1-2.7,2.4c0,0.2-0.1,0.3-0.2,0.3s-0.2-0.1-0.2-0.3
		c0-0.7-0.1-1.7-0.1-2.2c0-0.2,0-0.4,0.2-0.4s0.6-0.1,1.1-0.2c0.8-0.2,1.5-0.3,2.6-0.3c3.5,0,4.5,2,4.5,3.3c0,2.1-1.7,3.3-3,3.7
		c-0.1,0,0,0,0,0c1.5,0.3,4.2,1.5,4.2,4.1c0,2.9-2.5,5-6.4,5C459.4,180.4,458.4,180.1,457.8,179.9z"/>
	<path class="st0" d="M474.4,174.1c0,1.6,0,3.1,0,4.1c0,1.1,0.2,1.4,0.9,1.5c0.3,0,0.6,0,0.8,0.1c0.2,0,0.3,0.1,0.3,0.2
		c0,0.1,0,0.2-0.3,0.2c-1.3,0-2.8-0.1-2.9-0.1H473c-0.5,0-1.5,0.1-2,0.1c-0.2,0-0.3,0-0.3-0.2c0-0.1,0.1-0.1,0.3-0.1
		c0.2,0,0.4,0,0.5-0.1c0.5-0.1,0.6-0.4,0.7-1.3c0.1-0.9,0.1-2.3,0.1-4.3v-3.6c0-3.2,0-3.8,0-4.4c0-0.7-0.2-1-0.9-1.2
		c-0.1,0-0.4,0-0.6,0s-0.3-0.1-0.3-0.2c0-0.1,0.1-0.2,0.4-0.2c0.9,0,1.7,0.1,2.5,0.1c0.4,0,4.8,0,5.3,0s0.8,0,1.1-0.1
		c0,0,0.1,0,0.2,0s0.1,0.1,0.1,0.2c0,0.1-0.1,0.4-0.1,0.6c-0.1,0.6-0.1,1.1-0.1,1.7c0,0.2-0.1,0.4-0.2,0.4s-0.2,0-0.2-0.2
		c0-0.7-0.2-1-0.5-1.2s-0.5-0.3-1.3-0.3c-1,0-2,0-3.1,0c-0.2,0-0.2,0-0.2,0.2L474.4,174.1L474.4,174.1z"/>
	<path class="st0" d="M486.8,168c-0.1-0.3-0.1-0.3-0.3,0l-3.3,9.4c-0.2,0.7-0.4,1.3-0.4,1.7s0.3,0.6,0.8,0.6c0.1,0,0.1,0,0.2,0
		c0.2,0,0.3,0.1,0.3,0.2c0,0.1-0.2,0.2-0.4,0.2c-0.5,0-1.7-0.1-1.9-0.1c-0.2,0-1.3,0.1-2.3,0.1c-0.3,0-0.4,0-0.4-0.2
		c0-0.1,0.1-0.2,0.3-0.2c0.1,0,0.3,0,0.4,0c1-0.1,1.5-1,1.9-1.9l4.9-12.8c0.3-0.7,0.3-0.8,0.5-0.8c0.1,0,0.2,0.1,0.5,0.8
		c0.3,0.8,3.6,9.3,4.9,12.3c0.8,1.9,1.5,2.2,1.8,2.4c0.3,0.1,0.7,0.1,0.8,0.1c0.1,0,0.3,0,0.3,0.2c0,0.1-0.2,0.2-0.5,0.2
		c-0.2,0-1.8,0-3.5,0c-0.5,0-0.7,0-0.7-0.2c0-0.1,0.1-0.1,0.2-0.2c0.1,0,0.2-0.2,0.1-0.5L486.8,168z"/>
	<path class="st0" d="M508.6,164.5c0.3,0,0.4,0,0.4,0.2c0,0.1-0.1,0.2-0.2,0.2s-0.3,0-0.5,0c-0.6,0.1-0.8,0.5-0.8,1.2s0,1.2,0,4.4
		v3.6c0,1.9,0,3.6,0.1,4.4c0.1,0.6,0.2,1,0.8,1.1c0.3,0.1,0.7,0.1,0.9,0.1c0.2,0,0.3,0.1,0.3,0.2c0,0.1-0.1,0.2-0.3,0.2
		c-1.2,0-2.6-0.1-2.8-0.1c-0.1,0-1.5,0.1-2.1,0.1c-0.2,0-0.4,0-0.4-0.2c0-0.1,0.1-0.2,0.3-0.2c0.1,0,0.3,0,0.5,0
		c0.4-0.1,0.6-0.6,0.6-1.2c0.1-0.9,0.1-2.6,0.1-4.4v-0.7c0-0.1,0-0.1-0.1-0.1c-0.9,0-1.4,0-1.7,0c-0.1,0-0.3,0-0.3,0
		c-0.2,0.1-0.3,0.2-0.5,0.4c-0.4,0.4-1.6,2.1-2.1,2.8c-1,1.5-1.6,2.1-2.2,2.6c-0.8,0.7-1.4,0.9-3.5,0.9H494c-0.3,0-0.4,0-0.4-0.2
		c0,0,0-0.1,0.4-0.1c0.3,0,0.4,0,0.7,0c0.9-0.1,1.6-0.4,2.5-1.5c0.7-0.9,1.5-1.8,2.3-2.9c0.6-0.8,1.4-1.9,2.1-2.4
		c-2.2-0.8-3.1-2.5-3.1-4.1s0.8-2.8,2-3.5c0.8-0.6,2.2-0.9,3.7-0.9c1,0,1.7,0.1,2.3,0.1C506.7,164.6,507.9,164.5,508.6,164.5z
		 M505.5,165.6c0-0.1,0-0.2-0.1-0.2c-0.3-0.1-0.6-0.1-1.2-0.1c-2.3,0-3.7,1.2-3.7,3.7c0,2.3,1.9,3.6,4.1,3.6c0.4,0,0.6,0,0.7-0.1
		c0.1,0,0.1-0.2,0.1-0.3v-6.6H505.5z"/>
	<path class="st0" d="M515.9,180.1c-1.6,0-2.2,0-2.7,0.1c-1.1,0-1.5,0.4-1.6,1.4c0,0.2-0.1,0.3-0.2,0.3s-0.2-0.1-0.2-0.4
		c0-1.3-0.1-2.1-0.1-2.4c0-0.2,0-0.2,0.1-0.2c0.4,0.1,1.2,0.1,1.9,0.1c0.2,0,0.2,0,0.3-0.3l5.1-13.6c0.3-0.7,0.4-0.9,0.6-0.9
		c0.1,0,0.2,0.2,0.4,0.7c0.4,1,3.8,9.6,5.6,13.9c0.1,0.2,0.2,0.2,0.4,0.2c0.5,0,1.8,0,2.3-0.1c0.1,0,0.2,0,0.1,0.2
		c0,0.4-0.2,1.5-0.2,2.5c0,0.2-0.1,0.3-0.2,0.3c-0.1,0-0.2-0.1-0.2-0.3c-0.1-0.9-0.5-1.4-1.5-1.4c-0.6,0-1.9,0-2.8,0h-7.1V180.1z
		 M520.5,179.1c1.8,0,2.3,0,2.5-0.1c0.1,0,0.1-0.1,0-0.2c-1.2-3-2.7-7.3-4.2-11.1c0-0.1-0.1-0.1-0.1,0l-3.6,10.1
		c-0.2,0.5-0.4,1-0.4,1.1s0.1,0.1,0.1,0.1c0.4,0,1,0.1,2.3,0.1L520.5,179.1L520.5,179.1z"/>
	<path class="st0" d="M550.1,171c0.1,0,0.1,0,0.1-0.1v-0.4c0-3.2,0-3.8,0-4.4c0-0.7-0.1-1-0.9-1.1c-0.2,0-0.4,0-0.6,0
		c-0.2,0-0.3-0.1-0.3-0.2c0-0.1,0.1-0.2,0.3-0.2c1,0,2.5,0.1,2.6,0.1s1.5-0.1,2.2-0.1c0.2,0,0.4,0,0.4,0.2c0,0.1-0.1,0.2-0.3,0.2
		c-0.1,0-0.3,0-0.5,0c-0.7,0.1-0.8,0.5-0.8,1.2s0,1.2,0,4.4v3.6c0,2,0,3.6,0.1,4.4c0.1,0.6,0.2,1.1,0.8,1.1c0.3,0,0.6,0.1,0.9,0.1
		c0.2,0,0.3,0.1,0.3,0.2c0,0.1-0.1,0.2-0.4,0.2c-1.2,0-2.6-0.1-2.7-0.1c-0.1,0-1.5,0.1-2.2,0.1c-0.2,0-0.4,0-0.4-0.2
		c0-0.1,0.1-0.1,0.3-0.1s0.4,0,0.6,0c0.4-0.1,0.5-0.6,0.6-1.2c0.1-0.9,0.1-2.4,0.1-4.4v-2.2c0-0.1-0.1-0.1-0.1-0.1h-8.8
		c-0.1,0-0.1,0-0.1,0.1v2.2c0,2,0,3.5,0.1,4.4c0.1,0.5,0.2,1,0.8,1.1c0.3,0,0.7,0.1,0.9,0.1s0.3,0.1,0.3,0.2c0,0.1-0.1,0.2-0.3,0.2
		c-1.2,0-2.7-0.1-2.8-0.1s-1.6,0.1-2.2,0.1c-0.2,0-0.4,0-0.4-0.2c0-0.1,0-0.2,0.3-0.2c0.2,0,0.4,0,0.6-0.1c0.4-0.1,0.5-0.6,0.6-1.1
		c0.1-0.9,0.1-2.5,0.1-4.5v-3.6c0-3.2,0-3.8,0-4.5c0-0.6-0.2-1.1-0.9-1.2c-0.2,0-0.5,0-0.7,0s-0.3-0.1-0.3-0.1
		c0-0.1,0.1-0.2,0.4-0.2c1,0,2.2,0.1,2.5,0.1c0.1,0,1.5-0.1,2.2-0.1c0.2,0,0.4,0,0.4,0.2c0,0.1-0.1,0.1-0.2,0.1s-0.2,0-0.5,0
		c-0.6,0.1-0.8,0.5-0.8,1.2s0,1.2,0,4.4v0.4c0,0.1,0.1,0.1,0.1,0.1L550.1,171L550.1,171z"/>
	<path class="st0" d="M560.8,174.2c-0.1,0-0.2,0.1-0.2,0.2l-1.1,3c-0.2,0.7-0.4,1.3-0.4,1.7s0.3,0.6,0.8,0.6c0.1,0,0.1,0,0.2,0
		c0.2,0,0.3,0.1,0.3,0.2c0,0.1-0.2,0.2-0.4,0.2c-0.5,0-1.7-0.1-1.9-0.1s-1.3,0.1-2.3,0.1c-0.3,0-0.4,0-0.4-0.2
		c0-0.1,0.1-0.2,0.3-0.2c0.1,0,0.3,0,0.5,0c1-0.1,1.5-0.9,1.9-1.9L563,165c0.3-0.7,0.3-0.8,0.5-0.8c0.1,0,0.2,0.1,0.5,0.8
		c0.3,0.8,3.6,9.3,4.9,12.3c0.8,1.9,1.5,2.2,1.8,2.4c0.3,0.1,0.7,0.1,0.8,0.1c0.2,0,0.3,0,0.3,0.2c0,0.1-0.1,0.2-0.4,0.2
		c-0.2,0-2.1,0-3.7,0c-0.5,0-0.6,0-0.6-0.2c0-0.1,0.1-0.1,0.2-0.2c0.1,0,0.2-0.2,0.1-0.5l-1.9-4.9c0-0.1-0.1-0.1-0.2-0.1h-4.5V174.2
		z M565,173.4c0.1,0,0.1-0.1,0.1-0.1l-1.9-5.4c-0.1-0.3-0.1-0.3-0.3,0l-1.8,5.4c0,0.1,0,0.1,0,0.1H565z"/>
	<path class="st0" d="M588.3,173.1c0,2.3,0,4.2,0.1,5.3c0.1,0.7,0.2,1.2,0.9,1.3c0.3,0,0.9,0.1,1.1,0.1c0.1,0,0.2,0.1,0.2,0.1
		c0,0.1-0.1,0.2-0.4,0.2c-1.3,0-2.9-0.1-3-0.1s-1.7,0.1-2.4,0.1c-0.3,0-0.4,0-0.4-0.2c0-0.1,0-0.1,0.2-0.1s0.5,0,0.7-0.1
		c0.5-0.1,0.6-0.6,0.7-1.3c0.1-1,0.1-2.9,0.1-5.3v-10.3c-1.2,0-2.4,0-3.6,0c-1.5,0-2.1,0.2-2.5,0.8c-0.3,0.4-0.3,0.6-0.4,0.8
		c-0.1,0.2-0.1,0.2-0.2,0.2c-0.1,0-0.1-0.1-0.1-0.2c0-0.2,0.5-2.3,0.5-2.5c0-0.1,0.1-0.5,0.2-0.5c0.2,0,0.4,0.2,1.1,0.3
		c0.7,0.1,1.6,0.1,1.9,0.1h9.1c0.8,0,1.3,0,1.7-0.1c0.4,0,0.6-0.1,0.7-0.1c0.1,0,0.1,0.1,0.1,0.3c0,0.7-0.1,2.4-0.1,2.7
		c0,0.2-0.1,0.3-0.2,0.3c-0.1,0-0.2-0.1-0.2-0.4c0-0.1,0-0.2,0-0.3c-0.1-0.7-0.7-1.3-3-1.3c-1,0-2,0-3.1,0v10.2H588.3z"/>
	<path class="st0" d="M598.7,170.5c0-3.4,0-3.8,0-4.4c0-0.6-0.2-1-0.9-1.2c-0.2,0-0.6,0-0.8,0c0,0-0.1,0-0.1-0.1s0.1-0.2,0.3-0.2
		c1,0,2.4,0.1,2.5,0.1c0.5,0,1.7-0.1,2.7-0.1c2.7,0,3.6,0.9,4,1.2c0.5,0.4,1.1,1.4,1.1,2.7c0,2.7-2.2,4.7-5.3,4.7
		c-0.1,0-0.3,0-0.5,0c-0.1,0-0.2,0-0.2-0.1c0-0.2,0.1-0.2,0.6-0.2c1.9,0,3.5-1.3,3.5-3.4c0-0.3,0.1-1.8-1-2.9
		c-1.2-1.3-2.6-1.1-3-1.1c-0.3,0-0.7,0-0.8,0.1c-0.1,0-0.1,0.2-0.1,0.4v8.4c0,1.9,0,3.6,0.1,4.5c0.1,0.6,0.2,1.1,0.9,1.1
		c0.3,0,0.8,0.1,1,0.1c0.1,0,0.1,0,0.1,0.1s-0.1,0.2-0.3,0.2c-1.3,0-2.6-0.1-2.7-0.1c0,0-1.5,0.1-2.1,0.1c-0.2,0-0.3,0-0.3-0.2
		c0-0.1,0-0.1,0.2-0.1s0.4,0,0.6-0.1c0.4-0.1,0.6-0.6,0.6-1.1c0.1-0.9,0.1-2.6,0.1-4.4v-4H598.7z"/>
	<path class="st0" d="M612.6,174.2c-0.1,0-0.2,0.1-0.2,0.2l-1.1,3c-0.2,0.7-0.4,1.3-0.4,1.7s0.3,0.6,0.8,0.6c0.1,0,0.1,0,0.2,0
		c0.2,0,0.3,0.1,0.3,0.2c0,0.1-0.2,0.2-0.4,0.2c-0.5,0-1.7-0.1-1.9-0.1s-1.3,0.1-2.3,0.1c-0.3,0-0.4,0-0.4-0.2
		c0-0.1,0.1-0.2,0.3-0.2c0.1,0,0.3,0,0.5,0c1-0.1,1.5-0.9,1.9-1.9l4.9-12.8c0.3-0.7,0.3-0.8,0.5-0.8c0.1,0,0.2,0.1,0.5,0.8
		c0.3,0.8,3.6,9.3,4.9,12.3c0.8,1.9,1.5,2.2,1.8,2.4c0.3,0.1,0.7,0.1,0.8,0.1c0.2,0,0.3,0,0.3,0.2c0,0.1-0.1,0.2-0.4,0.2
		c-0.2,0-2.1,0-3.7,0c-0.5,0-0.6,0-0.6-0.2c0-0.1,0.1-0.1,0.2-0.2c0.1,0,0.2-0.2,0.1-0.5l-1.9-4.9c0-0.1-0.1-0.1-0.2-0.1h-4.5V174.2
		z M616.8,173.4c0.1,0,0.1-0.1,0.1-0.1l-1.9-5.4c-0.1-0.3-0.1-0.3-0.3,0l-1.8,5.4c0,0.1,0,0.1,0,0.1H616.8z"/>
	<path class="st0" d="M629.5,180.1c-1.6,0-2.2,0-2.7,0.1c-1.1,0-1.5,0.4-1.6,1.4c0,0.2-0.1,0.3-0.2,0.3c-0.1,0-0.2-0.1-0.2-0.4
		c0-1.3-0.1-2.1-0.1-2.4c0-0.2,0-0.2,0.1-0.2c0.4,0.1,1.2,0.1,1.9,0.1c0.2,0,0.2,0,0.3-0.3l5.1-13.6c0.3-0.7,0.4-0.9,0.6-0.9
		c0.1,0,0.2,0.2,0.4,0.7c0.4,1,3.8,9.6,5.6,13.9c0.1,0.2,0.2,0.2,0.4,0.2c0.5,0,1.8,0,2.3-0.1c0.1,0,0.2,0,0.1,0.2
		c0,0.4-0.2,1.5-0.2,2.5c0,0.2-0.1,0.3-0.2,0.3c-0.1,0-0.2-0.1-0.2-0.3c-0.1-0.9-0.5-1.4-1.5-1.4c-0.6,0-1.9,0-2.8,0h-7.1V180.1z
		 M634.1,179.1c1.8,0,2.3,0,2.5-0.1c0.1,0,0.1-0.1,0-0.2c-1.2-3-2.7-7.3-4.2-11.1c0-0.1-0.1-0.1-0.1,0l-3.6,10.1
		c-0.2,0.5-0.4,1-0.4,1.1s0.1,0.1,0.1,0.1c0.4,0,1,0.1,2.3,0.1L634.1,179.1L634.1,179.1z"/>
	<path class="st0" d="M646.2,177.5c2.9-3.4,8.3-9.9,10.1-11.9c0.8-0.9,1.2-1.3,1.4-1.3s0.3,0.2,0.3,1.9c0,3.9,0,7.6,0.1,11.4
		c0,1.7,0.2,2.1,0.9,2.2c0.1,0,0.6,0.1,0.9,0.1c0.3,0,0.3,0.1,0.3,0.2c0,0.1-0.1,0.1-0.3,0.1c-0.8,0-2.8-0.1-3.2-0.1
		c-0.5,0-1.2,0.1-2,0.1c-0.3,0-0.3,0-0.3-0.1s0-0.1,0.3-0.2c0.2,0,0.4,0,0.6-0.1c0.7-0.1,0.7-1.1,0.8-2.6c0.1-3.3,0-6.6,0.1-10.1
		c-1.1,1.4-10.1,12-10.9,12.8c-0.5,0.5-0.7,0.5-0.8,0.5c-0.2,0-0.3-0.1-0.3-0.9c0-3.4,0-8.1,0-12.1c0-2.3-0.3-2.4-1-2.5
		c-0.3,0-0.5,0-0.7,0s-0.2-0.1-0.2-0.2c0-0.1,0.2-0.2,0.5-0.2c0.7,0,2.1,0.1,2.5,0.1c0.8,0,1.6-0.1,2.2-0.1c0.3,0,0.4,0,0.4,0.1
		s0,0.2-0.3,0.2s-0.4,0-0.6,0c-0.6,0.1-0.8,0.4-0.8,2.1V177.5z"/>
	<path class="st0" d="M678.1,174.1c0,1.6,0,4,0,4.6c0,0.2,0,0.2,0.2,0.2c1.4,0,2.5,0,2.8-0.1c0.2,0,0.2,0,0.2,0.2
		c-0.1,0.3-0.3,1.4-0.3,2.4c0,0.3,0,0.4-0.1,0.4s-0.2-0.1-0.2-0.3c-0.1-0.8-0.4-1.3-1.3-1.4c-0.6,0-1.7-0.1-3.7-0.1h-9.5
		c-0.3,0-1.2,0.1-2.1,0.1c-0.2,0-0.4,0-0.4-0.1s0-0.1,0.3-0.2c0.2,0,0.2,0,0.5-0.1c0.5-0.1,0.6-0.7,0.6-1.5c0-0.7,0.1-0.9,0.1-4.1
		v-3.7c0-3.2,0-3.8,0-4.4c0-0.6-0.2-1-0.9-1.2c-0.2,0-0.4,0-0.6,0c-0.2,0-0.3-0.1-0.3-0.1c0-0.1,0.1-0.2,0.4-0.2
		c1,0,2.5,0.1,2.5,0.1c0.1,0,1.5-0.1,2.2-0.1c0.2,0,0.4,0,0.4,0.2c0,0.1-0.1,0.1-0.2,0.1c-0.2,0-0.3,0-0.5,0
		c-0.7,0.1-0.8,0.5-0.8,1.2s0,1.2,0,4.4v3.2c0,1.5,0,4.4,0.1,5.1c0,0.2,0.1,0.3,0.2,0.3c0.2,0,0.5,0,2.1,0h2.7c2.5,0,3.3,0,3.7,0
		c0.1,0,0.1,0,0.1-0.1v-8.4c0-3.2,0-3.8,0-4.4c0-0.7-0.1-1-1-1.1c-0.1,0-0.5,0-0.7,0c-0.1,0-0.2-0.1-0.2-0.1c0-0.1,0.1-0.2,0.4-0.2
		c1,0,2.4,0.1,2.5,0.1s1.5-0.1,2.2-0.1c0.3,0,0.4,0,0.4,0.2c0,0.1-0.1,0.1-0.2,0.1c0,0-0.3,0-0.5,0c-0.7,0.1-0.8,0.5-0.8,1.2
		s0,1.2,0,4.4v3.5H678.1z"/>
	<path class="st0" d="M687.1,177.5c2.9-3.4,8.3-9.9,10.1-11.9c0.8-0.9,1.2-1.3,1.4-1.3s0.3,0.2,0.3,1.9c0,3.9,0,7.6,0.1,11.4
		c0,1.7,0.2,2.1,0.9,2.2c0.1,0,0.6,0.1,0.9,0.1c0.3,0,0.3,0.1,0.3,0.2c0,0.1-0.1,0.1-0.3,0.1c-0.8,0-2.8-0.1-3.2-0.1
		c-0.5,0-1.2,0.1-2,0.1c-0.3,0-0.3,0-0.3-0.1s0-0.1,0.3-0.2c0.2,0,0.4,0,0.6-0.1c0.7-0.1,0.7-1.1,0.8-2.6c0.1-3.3,0-6.6,0.1-10.1
		c-1.1,1.4-10.1,12-10.9,12.8c-0.5,0.5-0.7,0.5-0.8,0.5c-0.2,0-0.3-0.1-0.3-0.9c0-3.4,0-8.1,0-12.1c0-2.3-0.3-2.4-1-2.5
		c-0.3,0-0.5,0-0.7,0s-0.2-0.1-0.2-0.2c0-0.1,0.2-0.2,0.5-0.2c0.7,0,2.1,0.1,2.5,0.1c0.8,0,1.6-0.1,2.2-0.1c0.3,0,0.4,0,0.4,0.1
		s0,0.2-0.3,0.2s-0.4,0-0.6,0c-0.6,0.1-0.8,0.4-0.8,2.1V177.5z"/>
	<path class="st0" d="M703.6,172.3c0-3.2,2.5-8.1,8.5-8.1c4.8,0,8.5,2.9,8.5,7.7c0,4.6-3.4,8.4-8.6,8.4
		C706.1,180.4,703.6,176,703.6,172.3z M718.3,172.6c0-4.9-3-7.6-6.3-7.6c-3.4,0-6.1,2.1-6.1,6.7c0,4.8,2.6,7.9,6.7,7.9
		C714.3,179.6,718.3,178.8,718.3,172.6z"/>
	<path class="st0" d="M736.4,171c0.1,0,0.1,0,0.1-0.1v-0.4c0-3.2,0-3.8,0-4.4c0-0.7-0.1-1-0.9-1.1c-0.2,0-0.4,0-0.6,0
		c-0.2,0-0.3-0.1-0.3-0.2c0-0.1,0.1-0.2,0.3-0.2c1,0,2.5,0.1,2.6,0.1s1.5-0.1,2.2-0.1c0.2,0,0.4,0,0.4,0.2c0,0.1-0.1,0.2-0.3,0.2
		c-0.1,0-0.3,0-0.5,0c-0.7,0.1-0.8,0.5-0.8,1.2s0,1.2,0,4.4v3.6c0,2,0,3.6,0.1,4.4c0.1,0.6,0.2,1.1,0.8,1.1c0.3,0,0.6,0.1,0.9,0.1
		c0.2,0,0.3,0.1,0.3,0.2c0,0.1-0.1,0.2-0.4,0.2c-1.2,0-2.6-0.1-2.7-0.1c-0.1,0-1.5,0.1-2.2,0.1c-0.2,0-0.4,0-0.4-0.2
		c0-0.1,0.1-0.1,0.3-0.1s0.4,0,0.6,0c0.4-0.1,0.5-0.6,0.6-1.2c0.1-0.9,0.1-2.4,0.1-4.4v-2.2c0-0.1-0.1-0.1-0.1-0.1h-8.8
		c-0.1,0-0.1,0-0.1,0.1v2.2c0,2,0,3.5,0.1,4.4c0.1,0.5,0.2,1,0.8,1.1c0.3,0,0.7,0.1,0.9,0.1s0.3,0.1,0.3,0.2c0,0.1-0.1,0.2-0.3,0.2
		c-1.2,0-2.7-0.1-2.8-0.1s-1.6,0.1-2.2,0.1c-0.2,0-0.4,0-0.4-0.2c0-0.1,0-0.2,0.3-0.2c0.2,0,0.4,0,0.6-0.1c0.4-0.1,0.5-0.6,0.6-1.1
		c0.1-0.9,0.1-2.5,0.1-4.5v-3.6c0-3.2,0-3.8,0-4.5c0-0.6-0.2-1.1-0.9-1.2c-0.2,0-0.5,0-0.7,0s-0.3-0.1-0.3-0.1
		c0-0.1,0.1-0.2,0.4-0.2c1,0,2.2,0.1,2.5,0.1c0.1,0,1.5-0.1,2.2-0.1c0.2,0,0.4,0,0.4,0.2c0,0.1-0.1,0.1-0.2,0.1s-0.2,0-0.5,0
		c-0.6,0.1-0.8,0.5-0.8,1.2s0,1.2,0,4.4v0.4c0,0.1,0.1,0.1,0.1,0.1L736.4,171L736.4,171z"/>
	<path class="st0" d="M756.7,171c0.1,0,0.1,0,0.1-0.1v-0.4c0-3.2,0-3.8,0-4.4c0-0.7-0.1-1-0.9-1.1c-0.2,0-0.4,0-0.6,0
		c-0.2,0-0.3-0.1-0.3-0.2c0-0.1,0.1-0.2,0.3-0.2c1,0,2.5,0.1,2.6,0.1s1.5-0.1,2.2-0.1c0.2,0,0.4,0,0.4,0.2c0,0.1-0.1,0.2-0.3,0.2
		c-0.1,0-0.3,0-0.5,0c-0.7,0.1-0.8,0.5-0.8,1.2s0,1.2,0,4.4v3.6c0,2,0,3.6,0.1,4.4c0.1,0.6,0.2,1.1,0.8,1.1c0.3,0,0.6,0.1,0.9,0.1
		c0.2,0,0.3,0.1,0.3,0.2c0,0.1-0.1,0.2-0.4,0.2c-1.2,0-2.6-0.1-2.7-0.1c-0.1,0-1.5,0.1-2.2,0.1c-0.2,0-0.4,0-0.4-0.2
		c0-0.1,0.1-0.1,0.3-0.1s0.4,0,0.6,0c0.4-0.1,0.5-0.6,0.6-1.2c0.1-0.9,0.1-2.4,0.1-4.4v-2.2c0-0.1-0.1-0.1-0.1-0.1H748
		c-0.1,0-0.1,0-0.1,0.1v2.2c0,2,0,3.5,0.1,4.4c0.1,0.5,0.2,1,0.8,1.1c0.3,0,0.7,0.1,0.9,0.1s0.3,0.1,0.3,0.2c0,0.1-0.1,0.2-0.3,0.2
		c-1.2,0-2.7-0.1-2.8-0.1s-1.6,0.1-2.2,0.1c-0.2,0-0.4,0-0.4-0.2c0-0.1,0-0.2,0.3-0.2c0.2,0,0.4,0,0.6-0.1c0.4-0.1,0.5-0.6,0.6-1.1
		c0.1-0.9,0.1-2.5,0.1-4.5v-3.6c0-3.2,0-3.8,0-4.5c0-0.6-0.2-1.1-0.9-1.2c-0.2,0-0.5,0-0.7,0s-0.3-0.1-0.3-0.1
		c0-0.1,0.1-0.2,0.4-0.2c1,0,2.2,0.1,2.5,0.1c0.1,0,1.5-0.1,2.2-0.1c0.2,0,0.4,0,0.4,0.2c0,0.1-0.1,0.1-0.2,0.1s-0.2,0-0.5,0
		c-0.6,0.1-0.8,0.5-0.8,1.2s0,1.2,0,4.4v0.4c0,0.1,0.1,0.1,0.1,0.1L756.7,171L756.7,171z"/>
	<path class="st0" d="M764.9,180.1c-0.2,0-0.3,0-0.3-0.2c0-0.1,0.1-0.1,0.3-0.1c0.1,0,0.3,0,0.6,0c0.4-0.1,0.5-0.6,0.6-1.2
		c0.1-0.9,0.1-2.6,0.1-4.4v-3.6c0-3.2,0-3.8,0-4.4c0-0.7-0.2-1-0.7-1.1c-0.2,0-0.4-0.1-0.6-0.1c-0.2,0-0.3-0.1-0.3-0.2
		c0-0.1,0.1-0.2,0.4-0.2c0.7,0,2,0.1,2.1,0.1s1.5-0.1,2.2-0.1c0.2,0,0.3,0,0.3,0.2c0,0.1-0.1,0.1-0.2,0.1c-0.1,0-0.3,0-0.5,0
		c-0.6,0.1-0.7,0.5-0.7,1.2s0,1.2,0,4.4v0.5c0,0.1,0,0.1,0.1,0.1c0.3,0,0.4,0,0.5,0c2.6,0,3.6,0.3,4.5,0.8c1.4,0.8,2.4,2,2.4,3.8
		c0,1.9-1.6,4.5-5.3,4.5c-0.9,0-2.5-0.1-3.1-0.1C767,180.1,765.6,180.1,764.9,180.1z M768,173.3c0,2,0,3.8,0,4.8
		c0,0.6,0.3,0.9,0.6,1.1c0.5,0.2,1.1,0.3,1.8,0.3c1.7,0,3-1.1,3-3.3c0-1.4-0.4-2.6-1.5-3.5c-0.9-0.7-2.3-0.9-3.9-0.9
		c0,0-0.1,0-0.1,0.1v1.4H768z M778.9,170.5c0-3.2,0-3.8,0-4.4c0-0.7-0.2-1-0.7-1.1c-0.2,0-0.4,0-0.6-0.1c-0.2,0-0.3-0.1-0.3-0.2
		c0-0.1,0.1-0.2,0.4-0.2c0.8,0,2.1,0.1,2.2,0.1c0.1,0,1.5-0.1,2.2-0.1c0.2,0,0.4,0,0.4,0.2c0,0.1-0.1,0.1-0.3,0.2
		c-0.1,0-0.3,0-0.4,0c-0.7,0.1-0.8,0.5-0.8,1.2s0,1.2,0,4.4v3.6c0,1.9,0,3.6,0.1,4.4c0.1,0.7,0.2,1,0.8,1.1c0.3,0.1,0.8,0.1,0.9,0.1
		c0.2,0,0.3,0.1,0.3,0.2c0,0.1-0.1,0.2-0.3,0.2c-1.2,0-2.6-0.1-2.8-0.1c-0.1,0-1.5,0.1-2.2,0.1c-0.2,0-0.4,0-0.4-0.2
		c0-0.1,0.1-0.2,0.3-0.2c0.1,0,0.4,0,0.6-0.1c0.4-0.1,0.5-0.6,0.6-1.2c0.1-0.9,0.1-2.6,0.1-4.4L778.9,170.5L778.9,170.5z"/>
	<path class="st0" d="M788.2,170.5c0-3.2,0-3.8,0-4.4c0-0.7-0.2-1-0.9-1.2c-0.1,0-0.4,0-0.6,0c-0.2,0-0.3-0.1-0.3-0.1
		c0-0.1,0.1-0.2,0.4-0.2c0.5,0,1.1,0,2.5,0.1c0.1,0,4.4,0,4.9,0s0.8,0,0.9-0.1c0.1,0,0.2-0.1,0.3-0.1c0,0,0.1,0,0.1,0.2
		c0,0.1-0.1,0.5-0.2,1.1c0,0.4,0,0.8-0.1,1.3c0,0.2,0,0.4-0.2,0.4c-0.1,0-0.2-0.1-0.2-0.3c0-0.4-0.1-0.6-0.2-0.8
		c-0.1-0.5-0.4-0.7-1.6-0.7c-0.3,0-2.7,0-2.8,0s-0.1,0-0.1,0.2v5.5c0,0.1,0,0.2,0.1,0.2c0.3,0,2.8,0,3.3-0.1c0.6,0,0.9-0.1,1.1-0.4
		c0.1-0.1,0.2-0.2,0.3-0.2c0,0,0.1,0,0.1,0.1s-0.1,0.6-0.2,1.3c-0.1,0.7-0.1,1.2-0.1,1.5c0,0.2-0.1,0.3-0.2,0.3
		c-0.1,0-0.1-0.1-0.1-0.3c0-0.1,0-0.4-0.1-0.6c-0.1-0.3-0.2-0.7-1.2-0.7c-0.6,0-2.5-0.1-2.9-0.1c-0.1,0-0.2,0.1-0.2,0.2v1.8
		c0,0.8,0,2.9,0,3.3c0,0.9,0.2,1.4,0.7,1.6c0.4,0.2,0.9,0.2,1.8,0.2c0.5,0,1.2,0,1.8-0.1c0.7-0.2,0.9-0.7,1.1-1.6
		c0-0.2,0.1-0.3,0.2-0.3c0.1,0,0.1,0.2,0.1,0.4s-0.2,1.7-0.3,2.1c-0.1,0.5-0.3,0.5-1.1,0.5c-1.6,0-2.3,0-3.1,0s-2-0.1-2.9-0.1
		c-0.6,0-1,0.1-1.6,0.1c-0.2,0-0.3,0-0.3-0.2c0-0.1,0.1-0.2,0.2-0.2c0.1,0,0.3,0,0.5-0.1c0.4-0.1,0.7-0.4,0.8-1.9c0-0.8,0-1.8,0-3.7
		v-3.9H788.2z"/>
	<path class="st0" d="M815,173.1c0,2.3,0,4.2,0.1,5.3c0.1,0.7,0.2,1.2,0.9,1.3c0.3,0,0.9,0.1,1.1,0.1c0.1,0,0.2,0.1,0.2,0.1
		c0,0.1-0.1,0.2-0.4,0.2c-1.3,0-2.9-0.1-3-0.1s-1.7,0.1-2.4,0.1c-0.3,0-0.4,0-0.4-0.2c0-0.1,0-0.1,0.2-0.1s0.5,0,0.7-0.1
		c0.5-0.1,0.6-0.6,0.7-1.3c0.1-1,0.1-2.9,0.1-5.3v-10.3c-1.2,0-2.4,0-3.6,0c-1.5,0-2.1,0.2-2.5,0.8c-0.3,0.4-0.3,0.6-0.4,0.8
		c-0.1,0.2-0.1,0.2-0.2,0.2c-0.1,0-0.1-0.1-0.1-0.2c0-0.2,0.5-2.3,0.5-2.5c0-0.1,0.1-0.5,0.2-0.5c0.2,0,0.4,0.2,1.1,0.3
		c0.7,0.1,1.6,0.1,1.9,0.1h9.1c0.8,0,1.3,0,1.7-0.1c0.4,0,0.6-0.1,0.7-0.1c0.1,0,0.1,0.1,0.1,0.3c0,0.7-0.1,2.4-0.1,2.7
		c0,0.2-0.1,0.3-0.2,0.3c-0.1,0-0.2-0.1-0.2-0.4c0-0.1,0-0.2,0-0.3c-0.1-0.7-0.7-1.3-3-1.3c-1,0-2,0-3.1,0v10.2H815z"/>
	<path class="st0" d="M825.3,170.5c0-3.2,0-3.8,0-4.4c0-0.7-0.2-1-0.9-1.2c-0.1,0-0.4,0-0.6,0c-0.2,0-0.3-0.1-0.3-0.1
		c0-0.1,0.1-0.2,0.4-0.2c0.5,0,1.1,0,2.5,0.1c0.1,0,4.4,0,4.9,0s0.8,0,0.9-0.1c0.1,0,0.2-0.1,0.3-0.1c0,0,0.1,0,0.1,0.2
		c0,0.1-0.1,0.5-0.2,1.1c0,0.4,0,0.8-0.1,1.3c0,0.2,0,0.4-0.2,0.4c-0.1,0-0.2-0.1-0.2-0.3c0-0.4-0.1-0.6-0.2-0.8
		c-0.1-0.5-0.4-0.7-1.6-0.7c-0.3,0-2.7,0-2.8,0s-0.1,0-0.1,0.2v5.5c0,0.1,0,0.2,0.1,0.2c0.3,0,2.8,0,3.3-0.1c0.6,0,0.9-0.1,1.1-0.4
		c0.1-0.1,0.2-0.2,0.3-0.2c0,0,0.1,0,0.1,0.1s-0.1,0.6-0.2,1.3c-0.1,0.7-0.1,1.2-0.1,1.5c0,0.2-0.1,0.3-0.2,0.3
		c-0.1,0-0.1-0.1-0.1-0.3c0-0.1,0-0.4-0.1-0.6c-0.1-0.3-0.2-0.7-1.2-0.7c-0.6,0-2.5-0.1-2.9-0.1c-0.1,0-0.2,0.1-0.2,0.2v1.8
		c0,0.8,0,2.9,0,3.3c0,0.9,0.2,1.4,0.7,1.6c0.4,0.2,0.9,0.2,1.8,0.2c0.5,0,1.2,0,1.8-0.1c0.7-0.2,0.9-0.7,1.1-1.6
		c0-0.2,0.1-0.3,0.2-0.3c0.1,0,0.1,0.2,0.1,0.4s-0.2,1.7-0.3,2.1c-0.1,0.5-0.3,0.5-1.1,0.5c-1.6,0-2.3,0-3.1,0s-2-0.1-2.9-0.1
		c-0.6,0-1,0.1-1.6,0.1c-0.2,0-0.3,0-0.3-0.2c0-0.1,0.1-0.2,0.2-0.2c0.1,0,0.3,0,0.5-0.1c0.4-0.1,0.7-0.4,0.8-1.9c0-0.8,0-1.8,0-3.7
		v-3.9H825.3z"/>
	<path class="st0" d="M841.2,172.2l-3.4-5.6c-0.6-0.9-0.9-1.4-1.6-1.6c-0.4-0.1-0.7-0.1-0.8-0.1c-0.2,0-0.3-0.1-0.3-0.2
		c0-0.1,0.1-0.2,0.4-0.2c0.6,0,2.5,0.1,2.6,0.1c0.2,0,1.3-0.1,2.1-0.1c0.3,0,0.4,0,0.4,0.1s-0.1,0.2-0.3,0.2c-0.1,0-0.4,0-0.6,0.1
		c-0.2,0-0.2,0.2-0.2,0.3c0,0.2,0.1,0.4,0.3,0.8c1,1.8,1.7,3,2.8,4.8c0.6-0.9,2.9-4.3,3.1-4.7c0.2-0.3,0.3-0.5,0.3-0.7
		c0-0.1-0.1-0.3-0.4-0.4c-0.2,0-0.4,0-0.5,0c-0.2,0-0.3-0.1-0.3-0.2c0-0.1,0.1-0.1,0.3-0.1c0.9,0,1.8,0.1,2,0.1s1.1-0.1,1.9-0.1
		c0.2,0,0.3,0.1,0.3,0.1c0,0.1-0.1,0.2-0.3,0.2s-0.5,0-0.8,0.1c-0.6,0.2-1,0.9-1.6,1.7l-3.4,4.9c0.4,0.7,4.1,6.6,4.5,7.2
		c0.3,0.4,0.6,0.8,1.2,0.9c0.3,0.1,0.6,0.1,0.7,0.1c0.2,0,0.3,0.1,0.3,0.2c0,0.1-0.1,0.2-0.3,0.2c-1.4,0-2.7,0-3.9,0
		c-0.4,0-0.4-0.1-0.4-0.2c0-0.1,0.1-0.1,0.2-0.1c0.2-0.1,0.2-0.3,0-0.6c-1.1-2-2.3-4-3.6-6l-3.3,5.3c-0.2,0.3-0.4,0.7-0.4,0.9
		s0.1,0.4,0.4,0.4c0.1,0,0.2,0,0.3,0c0.2,0,0.3,0.1,0.3,0.2c0,0.1-0.1,0.2-0.3,0.2c-0.5,0-1.9-0.1-2.1-0.1c-0.1,0-1.1,0.1-1.9,0.1
		c-0.2,0-0.3-0.1-0.3-0.2c0-0.1,0.1-0.2,0.3-0.2c0.1,0,0.4,0,0.7-0.1c0.6-0.2,1.1-0.6,1.8-1.7L841.2,172.2z"/>
	<path class="st0" d="M863.7,171c0.1,0,0.1,0,0.1-0.1v-0.4c0-3.2,0-3.8,0-4.4c0-0.7-0.1-1-0.9-1.1c-0.2,0-0.4,0-0.6,0
		c-0.2,0-0.3-0.1-0.3-0.2c0-0.1,0.1-0.2,0.3-0.2c1,0,2.5,0.1,2.6,0.1s1.5-0.1,2.2-0.1c0.2,0,0.4,0,0.4,0.2c0,0.1-0.1,0.2-0.3,0.2
		c-0.1,0-0.3,0-0.5,0c-0.7,0.1-0.8,0.5-0.8,1.2s0,1.2,0,4.4v3.6c0,2,0,3.6,0.1,4.4c0.1,0.6,0.2,1.1,0.8,1.1c0.3,0,0.6,0.1,0.9,0.1
		c0.2,0,0.3,0.1,0.3,0.2c0,0.1-0.1,0.2-0.4,0.2c-1.2,0-2.6-0.1-2.7-0.1c-0.1,0-1.5,0.1-2.2,0.1c-0.2,0-0.4,0-0.4-0.2
		c0-0.1,0.1-0.1,0.3-0.1s0.4,0,0.6,0c0.4-0.1,0.5-0.6,0.6-1.2c0.1-0.9,0.1-2.4,0.1-4.4v-2.2c0-0.1-0.1-0.1-0.1-0.1H855
		c-0.1,0-0.1,0-0.1,0.1v2.2c0,2,0,3.5,0.1,4.4c0.1,0.5,0.2,1,0.8,1.1c0.3,0,0.7,0.1,0.9,0.1s0.3,0.1,0.3,0.2c0,0.1-0.1,0.2-0.3,0.2
		c-1.2,0-2.7-0.1-2.8-0.1s-1.6,0.1-2.2,0.1c-0.2,0-0.4,0-0.4-0.2c0-0.1,0-0.2,0.3-0.2c0.2,0,0.4,0,0.6-0.1c0.4-0.1,0.5-0.6,0.6-1.1
		c0.1-0.9,0.1-2.5,0.1-4.5v-3.6c0-3.2,0-3.8,0-4.5c0-0.6-0.2-1.1-0.9-1.2c-0.2,0-0.5,0-0.7,0s-0.3-0.1-0.3-0.1
		c0-0.1,0.1-0.2,0.4-0.2c1,0,2.2,0.1,2.5,0.1c0.1,0,1.5-0.1,2.2-0.1c0.2,0,0.4,0,0.4,0.2c0,0.1-0.1,0.1-0.2,0.1s-0.2,0-0.5,0
		c-0.6,0.1-0.8,0.5-0.8,1.2s0,1.2,0,4.4v0.4c0,0.1,0.1,0.1,0.1,0.1L863.7,171L863.7,171z"/>
	<path class="st0" d="M870.6,172.3c0-3.2,2.5-8.1,8.5-8.1c4.8,0,8.5,2.9,8.5,7.7c0,4.6-3.4,8.4-8.6,8.4
		C873,180.4,870.6,176,870.6,172.3z M885.3,172.6c0-4.9-3-7.6-6.3-7.6c-3.4,0-6.1,2.1-6.1,6.7c0,4.8,2.6,7.9,6.7,7.9
		C881.2,179.6,885.3,178.8,885.3,172.6z"/>
	<path class="st0" d="M896.2,168c-0.1-0.3-0.1-0.3-0.3,0l-3.3,9.4c-0.2,0.7-0.4,1.3-0.4,1.7s0.3,0.6,0.8,0.6c0.1,0,0.1,0,0.2,0
		c0.2,0,0.3,0.1,0.3,0.2c0,0.1-0.2,0.2-0.4,0.2c-0.5,0-1.7-0.1-1.9-0.1s-1.3,0.1-2.3,0.1c-0.3,0-0.4,0-0.4-0.2
		c0-0.1,0.1-0.2,0.3-0.2c0.1,0,0.3,0,0.4,0c1-0.1,1.5-1,1.9-1.9L896,165c0.3-0.7,0.3-0.8,0.5-0.8c0.1,0,0.2,0.1,0.5,0.8
		c0.3,0.8,3.6,9.3,4.9,12.3c0.8,1.9,1.5,2.2,1.8,2.4c0.3,0.1,0.7,0.1,0.8,0.1s0.3,0,0.3,0.2c0,0.1-0.2,0.2-0.5,0.2
		c-0.2,0-1.8,0-3.5,0c-0.5,0-0.7,0-0.7-0.2c0-0.1,0.1-0.1,0.2-0.2c0.1,0,0.2-0.2,0.1-0.5L896.2,168z"/>
	<path class="st0" d="M906.1,172.3c0-3.2,2.5-8.1,8.5-8.1c4.8,0,8.5,2.9,8.5,7.7c0,4.6-3.4,8.4-8.6,8.4
		C908.5,180.4,906.1,176,906.1,172.3z M920.8,172.6c0-4.9-3-7.6-6.3-7.6c-3.4,0-6.1,2.1-6.1,6.7c0,4.8,2.6,7.9,6.7,7.9
		C916.7,179.6,920.8,178.8,920.8,172.6z"/>
	<path class="st0" d="M929.9,174.1c0,1.6,0,3.1,0,4.1c0,1.1,0.2,1.4,0.9,1.5c0.3,0,0.6,0,0.8,0.1c0.2,0,0.3,0.1,0.3,0.2
		c0,0.1,0,0.2-0.3,0.2c-1.3,0-2.8-0.1-2.9-0.1h-0.2c-0.5,0-1.5,0.1-2,0.1c-0.2,0-0.3,0-0.3-0.2c0-0.1,0.1-0.1,0.3-0.1s0.4,0,0.5-0.1
		c0.5-0.1,0.6-0.4,0.7-1.3c0.1-0.9,0.1-2.3,0.1-4.3v-3.6c0-3.2,0-3.8,0-4.4c0-0.7-0.2-1-0.9-1.2c-0.1,0-0.4,0-0.6,0
		c-0.2,0-0.3-0.1-0.3-0.2c0-0.1,0.1-0.2,0.4-0.2c0.9,0,1.7,0.1,2.5,0.1c0.4,0,4.8,0,5.3,0s0.8,0,1.1-0.1c0,0,0.1,0,0.2,0
		c0.1,0,0.1,0.1,0.1,0.2c0,0.1-0.1,0.4-0.1,0.6c-0.1,0.6-0.1,1.1-0.1,1.7c0,0.2-0.1,0.4-0.2,0.4c-0.1,0-0.2,0-0.2-0.2
		c0-0.7-0.2-1-0.5-1.2s-0.5-0.3-1.3-0.3c-1,0-2,0-3.1,0c-0.2,0-0.2,0-0.2,0.2V174.1z"/>
	<path class="st0" d="M941.8,177.5c2.9-3.4,8.3-9.9,10.1-11.9c0.8-0.9,1.2-1.3,1.4-1.3s0.3,0.2,0.3,1.9c0,3.9,0,7.6,0.1,11.4
		c0,1.7,0.2,2.1,0.9,2.2c0.1,0,0.6,0.1,0.9,0.1c0.3,0,0.3,0.1,0.3,0.2c0,0.1-0.1,0.1-0.3,0.1c-0.8,0-2.8-0.1-3.2-0.1
		c-0.5,0-1.2,0.1-2,0.1c-0.3,0-0.3,0-0.3-0.1s0-0.1,0.3-0.2c0.2,0,0.4,0,0.6-0.1c0.7-0.1,0.7-1.1,0.8-2.6c0.1-3.3,0-6.6,0.1-10.1
		c-1.1,1.4-10.1,12-10.9,12.8c-0.5,0.5-0.7,0.5-0.8,0.5c-0.2,0-0.3-0.1-0.3-0.9c0-3.4,0-8.1,0-12.1c0-2.3-0.3-2.4-1-2.5
		c-0.3,0-0.5,0-0.7,0s-0.2-0.1-0.2-0.2c0-0.1,0.2-0.2,0.5-0.2c0.7,0,2.1,0.1,2.5,0.1c0.8,0,1.6-0.1,2.2-0.1c0.3,0,0.4,0,0.4,0.1
		s0,0.2-0.3,0.2s-0.4,0-0.6,0c-0.6,0.1-0.8,0.4-0.8,2.1V177.5z"/>
	<path class="st0" d="M961.8,177.5c2.9-3.4,8.3-9.9,10.1-11.9c0.8-0.9,1.2-1.3,1.4-1.3s0.3,0.2,0.3,1.9c0,3.9,0,7.6,0.1,11.4
		c0,1.7,0.2,2.1,0.9,2.2c0.1,0,0.6,0.1,0.9,0.1c0.3,0,0.3,0.1,0.3,0.2c0,0.1-0.1,0.1-0.3,0.1c-0.8,0-2.8-0.1-3.2-0.1
		c-0.5,0-1.2,0.1-2,0.1c-0.3,0-0.3,0-0.3-0.1s0-0.1,0.3-0.2c0.2,0,0.4,0,0.6-0.1c0.7-0.1,0.7-1.1,0.8-2.6c0.1-3.3,0-6.6,0.1-10.1
		c-1.1,1.4-10.1,12-10.9,12.8c-0.5,0.5-0.7,0.5-0.8,0.5c-0.2,0-0.3-0.1-0.3-0.9c0-3.4,0-8.1,0-12.1c0-2.3-0.3-2.4-1-2.5
		c-0.3,0-0.5,0-0.7,0s-0.2-0.1-0.2-0.2c0-0.1,0.2-0.2,0.5-0.2c0.7,0,2.1,0.1,2.5,0.1c0.8,0,1.6-0.1,2.2-0.1c0.3,0,0.4,0,0.4,0.1
		s0,0.2-0.3,0.2s-0.4,0-0.6,0c-0.6,0.1-0.8,0.4-0.8,2.1V177.5z"/>
</g>
<g>
	<path class="st0" d="M298,94.7c0,8.4,0,14.9,0.4,18.6c0.3,3.3,1,4.7,3.6,5.2c1.2,0.3,2.4,0.3,3.4,0.3c1,0.1,1.1,0.3,1.1,0.6
		c0,0.3-0.3,0.6-1.1,0.6c-4.1,0-10.5-0.3-11.2-0.3c-0.8,0-5.8,0.3-8.5,0.3c-1.2,0-1.4-0.3-1.4-0.6c0-0.3,0.1-0.5,1.3-0.6
		c0.6-0.1,1-0.1,1.7-0.3c1.4-0.3,2.7-1.1,3-5c0.3-3.7,0.4-11.1,0.4-19.5V58.5c0-0.3-0.3-0.6-0.5-0.6c-1.3-0.1-5.7-0.1-19-0.1
		c-12.9,0-15,0-16.3,0.1c-1,0.1-1.5,0.3-1.5,1.7V95c0,8.4,0.1,14.5,0.3,18.2c0.2,3,0.8,4.9,3.4,5.3c1.2,0.2,2.8,0.3,3.6,0.3
		c1,0.1,1.3,0.3,1.3,0.7c0,0.3-0.3,0.5-1.6,0.5c-3.7,0-10.6-0.3-11-0.3c-0.7,0-5.5,0.3-8.1,0.3c-1,0-1.6-0.1-1.6-0.5
		c0-0.3,0.1-0.5,1-0.7c0.8-0.1,1-0.1,1.9-0.3c2-0.3,2.8-2.1,3-5.9c0.3-3.7,0.4-9.6,0.4-18V79.1c0-13.6,0-15.9-0.2-18.7
		c-0.2-3.3-1.2-4.5-3.7-5c-1-0.2-1.9-0.2-2.7-0.3s-1-0.4-1-0.7s0.5-0.5,1.5-0.5c3.2,0,8.2,0.3,9.5,0.3h44.5c0.4,0,7.1-0.3,9-0.3
		c1.2,0,1.3,0.3,1.3,0.5c0,0.3-0.3,0.5-1.1,0.7c-0.5,0.1-1,0.1-1.7,0.3c-2.2,0.5-3.1,1-3.3,4.9c-0.2,2.8-0.2,5.3-0.2,19v15.4H298z"
		/>
	<path class="st0" d="M318.2,91.8c0-11.6,9-29,30.6-29c17.3,0,30.5,10.3,30.5,27.9c0,16.7-12.3,30.3-30.9,30.3
		C326.9,121,318.2,105.1,318.2,91.8z M371.1,92.9c0-17.6-10.8-27.4-22.8-27.4c-12.2,0-21.9,7.5-21.9,24c0,17.1,9.5,28.5,24.2,28.5
		C356.4,118,371.1,115.1,371.1,92.9z"/>
	<path class="st0" d="M390.5,119.1c-1.1-0.6-1.5-1.5-1.5-2.4c-0.1-2.5,0.1-6.3,0.3-8c0.2-0.9,0.3-1,0.6-1c0.4,0,0.5,0,0.6,1.1
		c0.4,6,4.4,9.6,12.2,9.6c8.6,0,14.4-4.5,14.4-13.5c0-10.1-7.4-14.5-15.4-14.9c-2-0.1-2.8-0.3-2.8-0.8c0-0.4,0.9-0.7,2.8-1
		c7.4-0.6,11.7-4.4,11.7-11.5c0-5.3-2.5-11.4-11.6-11.4c-6.7,0-9.5,3.5-9.7,8.6c-0.1,0.9-0.3,1.1-0.7,1.1c-0.3,0-0.6-0.3-0.6-1
		c0-2.6-0.3-6.1-0.3-7.8c0-0.8,0.1-1.3,0.7-1.5c0.9-0.2,2.2-0.5,3.9-0.9c2.7-0.7,5.3-1.2,9.2-1.2c12.8,0,16.1,7.3,16.1,12
		c0,7.4-5.9,11.8-10.7,13.5c-0.3,0.1-0.2,0.2,0,0.2c5.4,1,14.9,5.2,14.9,14.6c0,10.3-9,18-23.2,18
		C396.2,121,392.6,120.1,390.5,119.1z"/>
	<path class="st0" d="M448.6,110.4c10.5-12.4,29.8-35.5,36.5-43c2.9-3.4,4.2-4.7,5.2-4.7c0.9,0,1.2,0.7,1.2,6.8
		c0.1,14,0.2,27.2,0.4,41.1c0.1,5.9,0.7,7.5,3.2,7.9c0.3,0.1,2,0.3,3.2,0.3c1,0.2,1,0.4,1,0.7c0,0.4-0.4,0.5-1.2,0.5
		c-2.8,0-10.1-0.3-11.4-0.3c-1.9,0-4.5,0.3-7.2,0.3c-1,0-1.2-0.2-1.2-0.5s0.1-0.5,1.2-0.6c0.6-0.1,1.5-0.2,2.1-0.3
		c2.4-0.5,2.6-3.8,2.7-9.4c0.3-11.8,0.2-23.9,0.4-36.2c-4.1,4.9-36.4,43.3-39.1,46.1c-1.7,1.7-2.5,1.9-3,1.9c-0.8,0-1-0.5-1-3.4
		c0-12.1,0.2-29.1,0-43.4c-0.1-8.1-1-8.7-3.5-8.9c-1-0.1-1.9-0.1-2.5-0.2s-0.8-0.3-0.8-0.6c0-0.5,0.7-0.6,1.7-0.6
		c2.4,0,7.6,0.3,8.8,0.3c2.8,0,5.8-0.3,8-0.3c1,0,1.4,0.2,1.4,0.5s-0.2,0.6-1,0.7c-1,0.1-1.3,0.1-2,0.2c-2,0.3-2.8,1.3-2.8,7.5
		L448.6,110.4z"/>
	<path class="st0" d="M556.3,87.3c0.3,0,0.5,0,0.5-0.4v-1.6c0-11.5,0-13.6-0.2-15.9c-0.2-2.4-0.5-3.6-3.4-4.1
		c-0.6-0.1-1.5-0.2-2.2-0.2c-0.6,0-1-0.3-1-0.6c0-0.5,0.4-0.6,1.2-0.6c3.7,0,8.8,0.3,9.2,0.3c0.3,0,5.2-0.3,7.9-0.3
		c0.9,0,1.4,0.1,1.4,0.6c0,0.3-0.3,0.6-1,0.6c-0.5,0-1.2,0.1-1.7,0.2c-2.4,0.3-2.7,1.7-2.9,4.2c-0.1,2.4-0.1,4.4-0.1,15.9v13.1
		c0,7.2,0,12.9,0.4,16c0.3,2.1,0.7,3.8,3,4.1c1.1,0.2,2.3,0.3,3.1,0.3c0.7,0,1.1,0.3,1.1,0.6c0,0.4-0.4,0.6-1.3,0.6
		c-4.4,0-9.4-0.3-9.9-0.3c-0.4,0-5.4,0.3-7.8,0.3c-0.9,0-1.3-0.2-1.3-0.7c0-0.3,0.3-0.5,1-0.5s1.3,0,2-0.2c1.5-0.3,1.9-2.2,2.2-4.2
		c0.4-3.1,0.4-8.7,0.4-15.7V91c0-0.3-0.3-0.5-0.5-0.5h-31.7c-0.3,0-0.4,0.1-0.4,0.5v7.8c0,7.1,0,12.8,0.4,15.9
		c0.3,1.9,0.7,3.7,3,3.9c1.1,0.2,2.4,0.3,3.1,0.3c0.6,0,1,0.3,1,0.6s-0.3,0.6-1.1,0.6c-4.5,0-9.6-0.3-10.1-0.3
		c-0.3,0-5.6,0.3-7.9,0.3c-0.9,0-1.4-0.2-1.4-0.6c0-0.3,0.2-0.6,1-0.6c0.7,0,1.4-0.1,2.1-0.3c1.6-0.3,1.9-2,2.2-3.9
		c0.5-3.1,0.4-9,0.4-16.2v-13c0-11.5,0-13.8-0.2-16.2c-0.2-2.3-0.8-3.9-3.3-4.2c-0.8-0.1-1.7-0.2-2.4-0.2c-0.6,0-1-0.3-1-0.5
		c0-0.5,0.4-0.6,1.3-0.6c3.8,0,8,0.3,9.1,0.3c0.4,0,5.4-0.3,7.9-0.3c0.9,0,1.3,0.2,1.3,0.6c0,0.3-0.4,0.5-0.9,0.5s-0.8,0-1.7,0.2
		c-2.2,0.4-2.7,1.8-2.9,4.3c-0.1,2.4-0.1,4.3-0.1,15.8v1.6c0,0.4,0.3,0.4,0.5,0.4L556.3,87.3L556.3,87.3z"/>
	<path class="st0" d="M673.3,94.7c0,8.4,0,14.9,0.4,18.6c0.3,3.3,1,4.7,3.6,5.2c1.2,0.3,2.4,0.3,3.4,0.3c1,0.1,1.1,0.3,1.1,0.6
		c0,0.3-0.3,0.6-1.1,0.6c-4.1,0-10.5-0.3-11.2-0.3c-0.8,0-5.8,0.3-8.5,0.3c-1.2,0-1.4-0.3-1.4-0.6c0-0.3,0.1-0.5,1.3-0.6
		c0.6-0.1,1-0.1,1.7-0.3c1.4-0.3,2.7-1.1,3-5c0.3-3.7,0.4-11.1,0.4-19.5V58.5c0-0.3-0.3-0.6-0.5-0.6c-1.3-0.1-5.7-0.1-19-0.1
		c-12.9,0-15,0-16.3,0.1c-1,0.1-1.5,0.3-1.5,1.7V95c0,8.4,0.1,14.5,0.3,18.2c0.2,3,0.8,4.9,3.4,5.3c1.2,0.2,2.8,0.3,3.6,0.3
		c1,0.1,1.3,0.3,1.3,0.7c0,0.3-0.3,0.5-1.6,0.5c-3.7,0-10.6-0.3-11-0.3c-0.7,0-5.5,0.3-8.1,0.3c-1,0-1.6-0.1-1.6-0.5
		c0-0.3,0.1-0.5,1-0.7c0.8-0.1,1-0.1,1.9-0.3c2-0.3,2.8-2.1,3-5.9c0.3-3.7,0.4-9.6,0.4-18V79.1c0-13.6,0-15.9-0.2-18.7
		c-0.2-3.3-1.2-4.5-3.7-5c-1-0.2-1.9-0.2-2.7-0.3s-1-0.4-1-0.7s0.5-0.5,1.5-0.5c3.2,0,8.2,0.3,9.5,0.3h44.5c0.4,0,7.1-0.3,9-0.3
		c1.2,0,1.3,0.3,1.3,0.5c0,0.3-0.3,0.5-1.1,0.7c-0.5,0.1-1,0.1-1.7,0.3c-2.2,0.5-3.1,1-3.3,4.9c-0.2,2.8-0.2,5.3-0.2,19L673.3,94.7
		L673.3,94.7z"/>
	<path class="st0" d="M702.3,85.3c0-12.1,0-13.6-0.2-16c-0.2-2.3-0.9-3.7-3.3-4.2c-0.6-0.1-2-0.2-2.7-0.2c-0.2,0-0.5-0.2-0.5-0.4
		c0-0.5,0.4-0.7,1.2-0.7c3.8,0,8.6,0.3,9.1,0.3c1.8,0,6.3-0.3,9.9-0.3c9.6,0,13.1,3.1,14.3,4.2c1.7,1.5,3.8,4.9,3.8,9.8
		c0,9.7-8,16.8-19,16.8c-0.4,0-1.2,0-1.7-0.1c-0.3,0-0.8-0.2-0.8-0.5c0-0.7,0.5-0.7,2.2-0.7c6.9,0,12.7-4.7,12.7-12.4
		c0-1.1,0.3-6.4-3.8-10.6c-4.3-4.5-9.3-4.1-10.8-4.1c-1.1,0-2.4,0.2-3,0.4c-0.4,0.2-0.5,0.8-0.5,1.4v30.2c0,6.7,0,13,0.3,16.2
		c0.3,2.1,0.7,3.8,3.1,4.1c1,0.2,2.8,0.3,3.5,0.3c0.3,0,0.5,0.2,0.5,0.4c0,0.4-0.4,0.7-1.2,0.7c-4.5,0-9.4-0.3-9.9-0.3
		c-0.1,0-5.2,0.3-7.7,0.3c-0.8,0-1.2-0.2-1.2-0.7c0-0.3,0.2-0.4,0.6-0.4c0.6,0,1.6-0.2,2.3-0.3c1.6-0.3,2-2,2.3-4.1
		c0.4-3.1,0.4-9.4,0.4-16V85.3H702.3z"/>
	<path class="st0" d="M744.7,91.8c0-11.6,9-29,30.6-29c17.3,0,30.5,10.3,30.5,27.9c0,16.7-12.3,30.3-30.9,30.3
		C753.4,121,744.7,105.1,744.7,91.8z M797.6,92.9c0-17.6-10.8-27.4-22.8-27.4c-12.2,0-21.9,7.5-21.9,24c0,17.1,9.5,28.5,24.2,28.5
		C782.9,118,797.6,115.1,797.6,92.9z"/>
	<path class="st0" d="M823.4,85.3c0-11.5,0-13.6-0.2-15.9c-0.2-2.4-0.8-3.7-3.3-4.2c-0.5-0.1-1.4-0.2-2.1-0.2
		c-0.6,0-1.1-0.3-1.1-0.5c0-0.5,0.4-0.7,1.3-0.7c1.7,0,4.1,0.2,9,0.3c0.4,0,16,0,17.7-0.1s2.7-0.2,3.4-0.4c0.5-0.2,0.6-0.3,1-0.3
		c0.2,0,0.3,0.2,0.3,0.6c0,0.5-0.5,1.7-0.7,3.9c-0.1,1.5-0.2,2.9-0.3,4.5c0,0.8-0.2,1.3-0.6,1.3s-0.6-0.4-0.6-1
		c-0.1-1.3-0.3-2.2-0.6-2.8c-0.5-1.7-1.3-2.4-5.7-2.6c-1.1-0.1-9.8-0.2-10-0.2c-0.3,0-0.4,0.2-0.4,0.7v19.8c0,0.5,0.1,0.9,0.5,0.9
		c1,0,10-0.1,11.8-0.3c2-0.1,3.3-0.3,4-1.3c0.3-0.5,0.6-0.7,1-0.7c0.2,0,0.4,0.1,0.4,0.5s-0.4,2.1-0.6,4.6c-0.3,2.4-0.3,4.2-0.4,5.3
		c-0.1,0.7-0.3,1-0.6,1c-0.4,0-0.5-0.5-0.5-1.1c0-0.5-0.1-1.4-0.3-2.1c-0.4-1.1-0.9-2.4-4.2-2.6c-2-0.2-9.1-0.3-10.5-0.3
		c-0.5,0-0.6,0.3-0.6,0.6v6.4c0,2.7-0.1,10.4,0,11.9c0.2,3.2,0.6,4.9,2.4,5.7c1.3,0.6,3.4,0.8,6.4,0.8c1.7,0,4.5,0.1,6.6-0.5
		c2.6-0.8,3.2-2.5,3.9-5.8c0.2-0.9,0.4-1.2,0.8-1.2c0.5,0,0.5,0.8,0.5,1.3c0,0.6-0.7,6.1-1,7.6c-0.3,1.7-1,1.9-3.8,1.9
		c-5.8,0-8.2-0.2-11.3-0.2c-3.1-0.1-7.1-0.3-10.3-0.3c-2,0-3.7,0.3-5.8,0.3c-0.8,0-1.2-0.2-1.2-0.6c0-0.3,0.3-0.6,0.8-0.6
		s1.1-0.1,1.7-0.3c1.6-0.3,2.6-1.5,2.8-6.9c0.1-3,0.2-6.6,0.2-13.2v-13H823.4z"/>
	<path class="st0" d="M876.5,89.5c4-3.6,13.6-12.7,17.5-17c4.2-4.6,4.5-5.1,4.5-6c0-0.6-0.3-1-1.4-1.4c-0.6-0.2-1-0.3-1-0.7
		c0-0.3,0.2-0.5,0.9-0.5c0.5,0,3.1,0.3,5.9,0.3c2.6,0,7.4-0.3,8.6-0.3c1.2,0,1.4,0.2,1.4,0.5s-0.3,0.6-1,0.7
		c-1.4,0.1-3.2,0.4-4.3,0.9c-2.1,0.7-3.2,1.7-7.8,5.8c-6.4,5.8-14,13.2-17.8,16.7c4.7,4.9,18.9,18.9,22.6,22.2
		c6.1,5.6,9.1,7.2,12.6,8c1,0.2,0.5,0.1,2,0.3c0.8,0.1,1.2,0.3,1.2,0.7c0,0.3-0.4,0.5-1.4,0.5h-5.7c-6.8,0-8.6-0.8-12.1-3.2
		c-3.9-2.8-17.9-17.1-24.8-25.3v6.9c0,6.7-0.1,12.9,0.3,16c0.3,2.5,0.7,3.5,3,4c1.1,0.3,3,0.3,3.3,0.3c0.8,0.1,1,0.3,1,0.6
		s-0.3,0.6-1.2,0.6c-4.5,0-9.5-0.3-10-0.3c-0.3,0-5.4,0.3-7.9,0.3c-0.8,0-1.4-0.2-1.4-0.6c0-0.3,0.4-0.6,1.1-0.6
		c0.4,0,1.4-0.1,2.1-0.3c1.5-0.3,1.7-2.1,2-4.2c0.4-3.1,0.4-9.4,0.4-15.9V85.3c0-11.5,0-13.6-0.2-16s-0.7-3.7-2.5-4
		c-0.9-0.2-1.5-0.2-2-0.3c-0.6-0.1-1-0.3-1-0.6c0-0.4,0.4-0.6,1.3-0.6c2.7,0,7.7,0.3,8,0.3c0.4,0,5.4-0.3,7.9-0.3
		c0.9,0,1.3,0.2,1.3,0.6c0,0.3-0.3,0.5-1,0.6c-0.5,0.1-1,0.1-1.6,0.2c-2.5,0.3-2.8,1.7-3,4.2c-0.2,2.4-0.1,4.4-0.1,15.9v4.2H876.5z"
		/>
	<path class="st0" d="M949,98.5c0,6.7,0.1,12.9,0.4,16.2c0.3,2.1,0.4,3.3,2.6,3.8c1,0.3,2.7,0.3,3.4,0.3s1,0.3,1,0.5
		c0,0.4-0.3,0.7-1.1,0.7c-4.5,0-9.6-0.3-10-0.3c-0.3,0-5.5,0.3-7.8,0.3c-1,0-1.3-0.2-1.3-0.6c0-0.3,0.3-0.6,1-0.6s1.2,0,1.9-0.1
		c1.7-0.3,1.9-1.3,2.3-4.3c0.3-3.1,0.3-9.4,0.3-16V67.3c-2.9,0-7.5,0-11,0.1c-5.6,0.1-6.8,1-8,2.8c-0.8,1.2-1.1,2.3-1.3,2.7
		c-0.3,0.6-0.4,0.7-0.8,0.7c-0.3,0-0.4-0.3-0.4-0.8c-0.1-0.5,1.2-6.3,1.7-8.7c0.3-1,0.5-1.4,0.8-1.4c0.6,0,2.3,0.8,3.8,1
		c3.1,0.4,5.5,0.4,5.6,0.4h28.7c2.4,0,5.1-0.2,6.3-0.4c1.1-0.3,1.4-0.3,1.7-0.3s0.5,0.4,0.5,0.8c0,2.4-0.2,8.2-0.2,8.9
		c0,0.8-0.3,1-0.6,1c-0.4,0-0.6-0.3-0.6-1c0-0.3,0-0.3-0.1-1.2c-0.3-3.5-1.5-4.4-10.3-4.5c-3.3,0-6-0.1-8.6-0.1L949,98.5L949,98.5z"
		/>
</g>
<g>
	<path class="st1" d="M114.8,103.1c0,0.2-0.1,0.2-0.3,0.2C114.5,103.1,114.6,103,114.8,103.1z"/>
	<path class="st2" d="M117.1,186c-1.3,0-3.4,0.9-4.7,0.9c-0.6-1.1,0-0.9,0.1-2.2c1.4,0,2.8-0.6,4.2-0.6
		C117.1,185.1,116.6,184.9,117.1,186z"/>
	<path class="st3" d="M117.1,171.3c-1.3,0-3.4,0.9-4.7,0.9c-0.6-1.1,0-0.9,0.1-2.2c1.4,0,2.8-0.6,4.2-0.6
		C117.1,170.4,116.6,170.2,117.1,171.3z"/>
	<path class="st3" d="M116.6,165.1c-1.3,0-3,0.9-4.3,0.9c-0.6-1.1,0.1-2.1-0.4-3.2c1.4,0,2.8-0.6,4.2-0.6
		C116.6,163.3,116.2,164.1,116.6,165.1z"/>
	<path class="st1" d="M197.8,120.7c0,0.3,0,0.6,0,0.9"/>
	<path class="st4" d="M111.6,172c-0.4,2.2-0.9,4.4-1.2,6.6c-0.2,1.8-0.1,3.5,0.3,5.3c-0.7,0-1.5,0-2.2,0c0.4-3.1-0.1-6.1-1.1-9.1
		c-0.2-0.7-0.3-1.5-0.1-2.3C108.7,172.4,110.1,172.2,111.6,172z"/>
	<path class="st4" d="M109,193c0.1-2.3-0.9-4.4-0.9-6.6c1.3,0.1,2.6,0.1,3.9,0.2c1.1,1.3,0.2,2.6,0.3,4c0,0.7,0.1,1.4,0.2,2.2
		C111.3,193.1,110.1,193.1,109,193z"/>
	<path class="st4" d="M113,155.9c-0.3,2.6-0.6,5.2-0.3,7.8c-1,0-2.1,0-3.1,0c1-2.5,1.2-5.1,1.3-7.8C111.6,156,112.3,156,113,155.9z"
		/>
	<path class="st4" d="M112.3,166.2c-0.1,1.2-0.3,2.3-0.4,3.5c-1.3,0.1-2.6,0.3-3.9,0.4c0.3-1.2,0.6-2.3,0.8-3.5
		C110,166.4,111.1,166.3,112.3,166.2z"/>
	<path class="st4" d="M110.7,153.9c-0.7-2.3,0.4-4.3,1-6.5c-0.1,2.3,0.5,4.4,1.2,6.4C112.3,153.9,111.5,153.9,110.7,153.9z"/>
	<g>
		<path class="st3" d="M174.9,49c-1.7-2.4-6.2-6.3-8.5-8.1c-5.9-4.5-12.1-8.7-18.5-12.5c-5.2-3.1-11-4.3-17-4.5
			c-8.4-0.2-16.7-1.3-25.1-0.9c-14,0.8-26.4,5.1-36.5,15.1c-2.8,2.8-6.1,5.1-9.3,7.5c-0.5,0.3-3.3,2.9-3.5,3.3c-1.3,0.1-2,0.3-3.3,0
			c2.1-2.5,7.1-6.2,9.5-8.3c4.2-3.6,8.2-7.2,12.6-10.5c7.7-5.8,16.6-8,26-8.9c13.4-1.3,26.7-0.1,40,2c4.4,0.7,8.2,2.7,11.8,5.3
			c4.4,3.1,8.7,6.4,13.3,9.3c3.9,2.4,8.8,7.8,11.8,11.2C176.9,49.3,176.2,49.2,174.9,49z"/>
		<path class="st3" d="M71.1,180.3c-5.3-2.1-10.7-6.7-14.5-10.7c-2.5-2.7-4.6-5.6-6.7-8.6c-1-1.5-2.1-2.8-3.5-4
			c-4.1-3.5-6-8.4-7.9-13.3c-2.2-5.7-3.7-11.5-4.7-17.5c-0.1-0.3-0.2-0.6-0.3-0.9c-0.5-0.5-0.3-1.1-0.3-1.7c0.2-8.1,0.3-16.2,0-24.3
			c0-0.5,0.1-0.9,0.2-1.4c1.3-5.1,2.6-10.1,4.5-15c0.9-0.3,1.8-0.3,2.7-0.2c-3.2,6.9-5.1,14.3-5.6,21.9c-0.8,13.4,0.8,26.4,5.7,39
			c1.4,3.6,2.6,7.5,5.5,10.2c2.7,2.6,4.8,5.5,7,8.5c1.2,1.7,2.4,3.3,3.8,4.8c3.7,4.3,9.1,9.1,14.6,11.2
			C71.7,179.1,71.7,179.7,71.1,180.3z"/>
		<path class="st3" d="M195.7,142.8c2.7-2.4,5.8-8.5,6.5-11.8c1.3-6.4,0.7-12.9,0.3-19.3c-0.3-5.7-0.7-11.4-1.1-17.1
			c-0.2-3.7-0.4-7.4-0.8-11c-0.3-2.3-3.1-8.2-4.9-9.9c0-1.4,0-2.8,0-4.3c4.5,4.4,8.6,13.5,8.8,19.6c0.3,9.1,1.1,18.3,1.5,27.4
			c0.2,4.3-0.7,8.6-0.9,13c-0.3,6.1-5.1,13.4-9.3,17.7C195.7,145.5,195.8,144.4,195.7,142.8z"/>
		<path class="st3" d="M162.1,49c-0.5-0.5-4.4-3-5-3.3c-10.9-5.2-21.9-10.2-33.9-12.1c-8-1.2-16-1.3-23.8,1.7
			c-1.9,0.8-3.9,1.3-5.8,2c-5.3,1.8-12,7.3-15.4,11.6c-1.2,0.1-1.7,0.3-2.8,0c5.8-7.6,15.8-13.7,24.7-16.4
			c5.4-1.6,10.7-1.8,16.2-1.7c12.5,0.2,23.4,5.7,34.8,9.7c4.3,1.5,11.4,5.6,14.3,8.4C164,49.1,163.5,49,162.1,49z"/>
		<path class="st3" d="M33.7,72.3c-3.3,4.7-6.3,13.9-6.9,19.3c-1.1,9.7-2.1,19.5-1.6,29.3c0.4,9.1,5.4,24.5,8.6,32.8
			c0,2.2,0,3.5,0,5.7c-2.1-5.7-6.7-17.4-8.8-23.1c-1.6-4.5-2-9.1-2.1-13.8c-0.3-11.1-0.2-22.3,1.9-33.3c1.2-6.1,5.5-15.4,8.9-20.7
			C33.7,69.9,33.7,70.8,33.7,72.3z"/>
		<path class="st3" d="M155.6,191.2c5.5-1.8,10.3-4.9,14.6-8.7c3.3-2.9,6.5-5.8,9.6-8.8c2.6-2.4,4.1-5.6,4.5-9
			c1-8.8,5.2-15.9,11.5-21.9c0,1.5,0,2.9,0,4.3c-4.7,4.9-7.4,10.8-8.3,17.6c-0.6,4.7-2.8,8.7-6.3,12c-5.6,5.3-11.6,10.2-18.1,14.3
			C160.6,192.6,158.1,192.8,155.6,191.2z"/>
		<path class="st3" d="M193.5,136.5c-6.3,14.7-12.6,24.5-22.8,36.9c-1.6,1.9-3.9,3.1-5.8,4.5c-2.3,1.7-4.2,3.8-6.6,5.2
			c-2.5,1.5-4.2,3.2-6.2,5.2c0,0,0,0,0,0c-0.4-0.7-0.7-1.5-0.7-2.3c0,0,0,0,0,0c3.1-4.7,6-5.8,10.7-8.5c2.7-1.6,6.9-5,8.8-7.5
			c8.2-10.4,15-21.6,20.9-33.5c1.7-3.3,1.7-3.3,1.7-4.1C196.2,130.3,195.2,133.8,193.5,136.5z"/>
		<path class="st3" d="M65.5,193.5c-3.6-3.5-7.9-9.4-11.8-12.6c-2.8-2.4-5.9-4.5-9.4-5.8c-2.9-1.1-4.8-3.1-6.1-5.9
			c-1.6-3.4-3.2-6.8-4.7-10.1c0-2,0-4,0-6c2.4,5,4.5,10.1,7.1,15c1,1.9,2.1,3.6,4.1,4.3c6.6,2.5,11.2,7.5,15.9,12.4
			c1.9,1.9,4.9,5.8,6.7,7.8C66.9,193.4,66.4,193.6,65.5,193.5z"/>
		<path class="st3" d="M144.1,49c-0.9-0.5-4.9-2.9-5.5-3.2c-5.5-2.8-11.1-5.2-17.2-6.2c-4.7-0.7-9.1,0.1-13.3,2.1
			c-2.9,1.4-9,5.9-11.9,7.3c-1.8,0.2-3.4,0.1-5.2,0c2.4-1.4,8.4-4.7,10.7-6.2c9.3-6.3,19.1-6.8,29.3-2.7c4.8,1.9,12.3,6.3,16.8,8.9
			C146.2,49,145.7,49,144.1,49z"/>
		<path class="st3" d="M70.3,62.4c1.8-1.5,3.8-2.5,5.8-3.7c5.1-3,10.3-6.8,15-9.7c1.8,0,3.4,0,5.2,0c-7.9,3.6-14.8,8.6-21.9,13.3
			c-0.6,0.4-1.2,0.9-1.7,1.3C71.7,63.4,71,63,70.3,62.4z"/>
		<path class="st3" d="M147.9,49c4.3,3.3,8.5,6.6,12.2,10.5c0.5,0.5,1.6,1.7,2,2.2c-0.7,0.3-1.2,0.7-1.9,0.9
			c-4.6-5-10.9-10.9-16.2-13.7C145.3,49,146.6,49,147.9,49z"/>
		<path class="st3" d="M187.2,57.6c2.8,2.5,5.5,6.9,7.4,10.1c0.4,0.6,1.2,1.6,1.6,2.2c0,1.5-0.5,2.3-0.5,3.8c-1.7-2.5-3.4-4.7-5-7.2
			c-1.5-2.5-4.1-5.1-5.9-7.5C185.7,58.8,186.4,57.8,187.2,57.6z"/>
		<path class="st3" d="M78.2,49c-3.9,4.5-8.2,8.5-12.9,12.2c-1.5-0.1-3.1-0.1-4.5-0.8c3-0.4,5.2-2.4,7.3-4.3
			c2.5-2.2,5.1-4.6,7.2-7.2C76.4,49,77.2,49,78.2,49z"/>
		<path class="st3" d="M33.7,68.9c2.6-3.4,5.8-6.4,8.6-9.7c1,0,1.9,0.3,2.8,0.8c-2.9,3.5-6.5,6.3-9.4,9.8c-0.7,0.9-1.3,1.6-2,2.4
			C33.7,71,33.7,70.2,33.7,68.9z"/>
		<path class="st3" d="M165.4,49c2.7,2.8,5.6,5.5,8,8.5c-0.7,0.2-1.4,0.4-2.1,0.6c-2.7-3.3-6-6.2-9.2-9C163.1,49,164.3,49,165.4,49z
			"/>
		<path class="st3" d="M195.6,88.6c0-1.4-1.1-5.9,0-4.1c3.1,5,6.5,42.6-0.8,49.1c0,0.3,0.8-3.3,0.8-3.3s2-4.5,2-16
			C197.6,107,196.4,91.9,195.6,88.6z"/>
		<path class="st2" d="M49.3,52.7c1.2-1.2,2.6-2.4,3.9-3.6c1.2,0,2.2,0,3.3,0c-1.6,1.7-3.2,3.4-5.1,4.7
			C50.5,53.6,49.9,53.2,49.3,52.7z"/>
		<path class="st2" d="M178.2,49c0.6,1,1.9,1.5,2.4,2.6c-0.4,0.7-1,1.1-1.7,1.3c-1.3-1.3-2.7-2.6-4-3.9C176.1,49,177.1,49,178.2,49z
			"/>
		<path class="st3" d="M149.3,176.9c-0.5-0.8-0.9-1.5-1-2.4c3.4-1.5,6.9-2.9,9-6.2c1.5-2.4,3.3-4.4,5.4-6.3
			c5.4-5,9.8-10.6,12.8-17.4c1.9-4.2,4.7-8.1,5.7-12.7c2.2-9.6,4.4-19.1,6.8-28.6c1.2-4.7,0-8.4-3.5-11.5c-2.3-2-4.5-4.3-6.5-6.6
			c-0.4-0.5-0.8-1.1-1.5-1.2c1.5-0.6,2.8,0.6,4.3,0.2c1.7,2.2,3.7,4.3,5.8,6.2c4,3.8,5.4,8.2,3.9,13.8c-2.5,9.5-4,19.4-6.9,28.7
			c-3.5,11-8.3,21.5-17,29.7c-2.4,2.3-4.6,4.7-6.7,7.2C157,173.2,153.5,175.6,149.3,176.9z"/>
		<path class="st3" d="M153.6,192.6c0.6,0.9,0.7,1.4,0.9,2.4c-2.7,0.9-10.1,4.3-12.9,5.2c-5.2,1.7-19.7,1-20.3,1c0,0,0.3-1.3,0-2.4
			c5.3,0.7,11.2,0.8,16.4-0.5C141.6,197.3,149.8,193.9,153.6,192.6z"/>
		<path class="st3" d="M120.4,52.4c-1.8-1.8-5.8-0.9-8.1-0.9c2.7-1.2,8.9-2.3,11.6-1.4c9.3,2.9,17.2,8,24.2,14.6
			c0.9,0.8,1.7,1.8,2.9,2.3c-0.8,0.6-1.7,1-2.7,1c-0.1-0.2-0.2-0.4-0.3-0.5c-7-6.9-15.3-11.6-24.3-15.3c-0.3-0.1-0.8-0.1-1.2-0.1
			c0,0,0,0,0,0C122.5,52,120.5,52.5,120.4,52.4z"/>
		<path class="st3" d="M79.7,68c-1.2-0.1-2.5-0.7-3.3-1.4c7.5-3.4,16-7.3,23.7-10.3c2.8-1.1,11.1-4.9,11.8-4.9
			c-0.6,1.5-0.5,2.1-2.4,2.8c-0.7-0.3-18.8,9-22.4,10.6C84.8,65.9,81.7,66.4,79.7,68z"/>
		<path class="st3" d="M73.8,197.9c0.2-1,0.3-2.1,0.5-3.1c2.8,1.2,5.6,2.3,8.3,3.6c4.6,2.2,9.4,2.4,14.3,1.7
			c2.9-0.4,7.4-1.3,10.3-1.8c0.6,0.7,0-2.4,0.9,2.8c-4.4,0.6-10.9,2-15.4,2.1c-5.1,0.1-9.8-1.3-14.4-3.5
			C76.9,199,75.5,198.2,73.8,197.9z"/>
		<path class="st3" d="M44.6,76.5c-0.6-0.4-3.2,1.8-3.8,1.4c2.2-3.7,7.4-10.8,10.9-13.3c0.5-0.4,1.5-0.9,1.9-1.8
			c0.6,0,2.1,0.8,2.8,1.4C52.1,66.6,47.3,72.4,44.6,76.5z"/>
		<path class="st3" d="M175.7,63.5c0.5-1,1.4-0.7,2.2-0.7c3.4,3.7,10,11.8,13,15.7c-0.8,0-1.1,0-1.9,0c-2.4-2.9-8.7-10-11.1-12.8
			C177.3,64.8,176.9,63.8,175.7,63.5z"/>
		<path class="st2" d="M192.4,79.8c-1.2,0.1-2.3,0-3.7-0.6c1.4,0,2.5,0,3.6,0C192.3,79.4,192.4,79.6,192.4,79.8z"/>
		<path class="st3" d="M50.9,83.3c-1.9,4-4,7.9-4.6,12.3c-0.8,5.4-1.4,10.8-2.1,16.2c-0.4,3.9-1,7.8-1.2,11.8
			c-0.3,5.6,1.4,10.6,4.4,15.3c4.9,7.6,9.8,15.3,14.8,22.9c2.3,3.5,5.2,6.5,8.6,8.9c0.6,0.4,2,1.8,2.8,1.9c-0.3,1-0.1,1.6-0.9,2.4
			c-4.7-2.3-9.3-6.4-12.2-10.6c-5.6-8.2-11-16.4-16.2-24.8c-3.6-5.7-4.3-12.2-3.8-18.8c0.7-9.1,2-18.2,3.8-27.1
			c0.7-3.5,2.3-6.7,3.7-10C48.9,83.8,49.9,83.5,50.9,83.3z"/>
		<path class="st3" d="M158.8,86.9c0.9,1.4,2,2,2.8,3c3.9,4.8,5.9,10.2,5.7,16.4c-0.1,5.1,0.7,10.3,0.5,15.4
			c-0.3,6.4-1.4,12.7-4,18.6c-1.2,2.8-2.9,5.3-5.4,7.2c-5.6,4.2-11.3,8.2-17.8,11c-0.2-0.9-0.4-1.8-0.6-2.7
			c5.9-2.8,11.4-6.4,16.5-10.4c4.6-3.7,5.9-9.2,7.2-14.6c1.6-6.9,1-13.9,0.6-20.9c-0.1-2.3-0.1-4.6-0.3-6.9
			c-0.5-4.4-2.3-8.3-5.1-11.8c-1.2-1.5-2.6-2.9-3.6-4.7C156.7,86.7,157.5,86.9,158.8,86.9z"/>
		<path class="st3" d="M141.7,162.3c5.6-1.7,10.7-4.5,14.7-8.8c1.4-1.5,3.1-2.9,4.6-4.4c5.6-5.4,7.7-12.4,9.5-19.6
			c1.6-6.3,1.8-12.9,2.4-19.4c0.2-2,0.2-3.9,0.4-5.9c0.4-3.8-0.8-7.1-3-10.2c-1.7-2.4-3.8-5.2-5-8c0.8-0.2,1.6-0.7,2.4-0.9
			c1.9,3,3.9,6.5,5.8,9.5c1.3,2.1,2.3,4.4,2.1,6.9c-0.9,9.8-1,19.7-3.2,29.4c-1,4.5-2.5,8.9-4.7,13c-1.8,3.4-4.1,6.4-7.4,8.6
			c-0.9,0.6-1.7,1.3-2.3,2.1c-4.2,5-9.7,7.7-15.7,9.8C141.7,163.8,141.5,163.1,141.7,162.3z"/>
		<path class="st3" d="M61.3,85.3c-1.1,3.3-2.7,6.4-3.7,9.8c-2.1,7-2.2,14-1.5,21.1c0.6,5.6,0.7,11.3,2.3,16.8
			c2.2,7.9,6.4,14.7,11.2,21.2c1.6,2.1,4,3.4,6,5.1c0.8,0.7,3,2,3.5,3c-0.2,0.7-0.4,1.5-0.9,1.9c-12-8.4-20.4-21.3-22.9-35.4
			c-2-11.3-2.9-22.8,0-34.1c0.9-3.5,2.5-6.7,3.7-10C59.8,84.5,60.6,84.7,61.3,85.3z"/>
		<path class="st3" d="M137.6,145.2c12.4-8.1,20.1-19.1,19.3-34.4c-0.5-9-4.7-16.8-10.7-23.5c-0.3-0.4-0.7-0.8-1-1.2
			c1.3,0.1,2.6,0.2,3.9,0.3c5.5,6.5,9,13.9,10.5,22.3c0.9,4.9,0.6,9.6-1.2,14.2c-3.9,10.2-9.9,18.7-19.4,24.5
			c-0.3,0.2-0.7,0.4-1,0.5C137.9,147.1,137.8,146.1,137.6,145.2z"/>
		<path class="st3" d="M83.9,157.5c-8.5-4.9-15.4-12.7-17.3-22.6c-1.7-8.6-3.7-17.2-4.4-26c-0.6-7.7-0.1-15.4,2.3-22.8
			c0.6,0,1.3,0.1,1.9,0.1c-1.2,3.1-1.4,6.3-1.7,9.6c-1,14.3,1.7,28,5.2,41.7c2,7.7,7.9,14.4,15,18.1C84.9,156.6,84.6,157,83.9,157.5
			z"/>
		<path class="st3" d="M88.2,151.8c-7.2-10.6-15-22.5-16.4-35.7c-0.6-5.9,0.4-11.7,0.7-17.5c0.1-1.2,0.2-2.5,0.3-3.7
			c0.2-3.4,1.3-6.6,3.1-9.5c1-0.2,1.9,0.1,2.8,0.4c-2.6,3.6-3.6,7.6-3.7,12c-0.1,4.7-0.7,9.3-0.8,14c-0.2,8,1.7,15.5,5.7,22.5
			c2.4,4.2,6.8,11.5,9.3,15.7C89.5,150.5,88.7,150.9,88.2,151.8z"/>
		<path class="st3" d="M135.2,138.1c3.8-2.3,6.2-5.6,7.6-9.8c1.4-4.3,2.7-8.7,4.1-13c0.5-1.7,0.5-3.5-0.1-5.2
			c-2.7-8.4-7.2-15.5-14.2-21c-0.3-0.2-0.4-0.5-0.6-0.7c0.2-0.8,0.4-1.7,1.5-1.6c6.1,4.5,10.3,10.5,13.3,17.4
			c4.1,9.7,4,6.6,0.8,16.4c-1.1,3.3-2.1,6.6-3.2,9.9c-1.5,4.4-4.2,7.9-8.4,10C135.4,139.8,135.3,139,135.2,138.1z"/>
		<path class="st3" d="M95.4,86.8c-6.5,3.6-8.5,9.7-8.8,16.6c-0.2,6-0.4,12.1,0,18.1c0.4,4.9,3,10,6.3,13.7c0,1.3-0.9,2.2-1.4,3.3
			c-5-6-7.5-13.4-7.8-21.2c-0.3-7.3,0.8-14.4,1.6-21.6c0.3-3,1.8-5.3,3.9-7.4c0.6-0.6,1.2-1.2,1.8-1.8
			C92.4,86.6,93.9,86.3,95.4,86.8z"/>
		<path class="st3" d="M130,127.4c0-0.1,0-0.1,0.1-0.2c6.2-3.4,6.6-8.9,5.1-15c-1.1-4.8-3.4-8.8-7.4-11.8c0-0.8,0.2-1.6,0.6-2.4
			c1.4,1.5,2.7,3,4.2,4.4c3.4,3.3,4.9,7.4,5.4,11.9c0.2,1.2,0.2,2.5,0.3,3.7c0.4,4.8-2.3,8.8-7.4,10.9
			C130.3,128.7,130.1,128.1,130,127.4z"/>
		<path class="st3" d="M101.5,102.1c-6.7,5.2-5.6,18.5-2.4,23.2c-0.4,1.2-0.7,1.9-1.4,2.8c-2.6-5.1-4.9-11.7-4.1-17.3
			c0.7-4.5,3.8-8.4,7.4-11.1C101.2,100.6,101.6,101.2,101.5,102.1z"/>
		<path class="st3" d="M79,183.6c1.9,1.1,3.4,2.8,4.5,4.6c2,3.4,4.8,4.9,8.7,4.9c3.5,0,10.6,0.6,14.1,0.8c0.2,0.7,0.2,0.7,0.5,1.4
			c-4.7-0.3-12.9,0.1-17.6-0.6c-2.6-0.4-4.7-1.7-6-4c-1.3-2.3-3.3-4.1-5-6.1C78.2,184.3,78.5,183.9,79,183.6z"/>
		<path class="st3" d="M151.7,186c-3.5,0.8-12.9,4.6-16.4,5.4c-4.8,1-9.6,1.5-14.4,1.8c0-0.8-0.1-1.6-0.1-2.3
			c7.1-0.6,14.3-0.9,21.1-3.1c0.7-0.2,8.6-3.9,9.3-4.1C151.8,184.2,151,185.3,151.7,186z"/>
		<path class="st3" d="M121.4,62.8c-1.5,0-0.3-1.2,0-1.9c7.1,0.5,17.6,4.6,22.3,9.4c-0.8,0.5-1.7,0.9-2.5,1.4
			c-1.8-4.1-13.2-8.4-19.3-8.9"/>
		<path class="st3" d="M83.3,177.3c5.4,2.5,14.7,5.6,20.5,6.8c0.3,0.9,0.2,1.4,0.5,2.4c-6-1-14.9-4-20.4-6.1c-0.7-0.3-1.6-0.7-2.3-1
			C81.8,178.4,82.4,177.8,83.3,177.3z"/>
		<path class="st3" d="M146,177.9c-4.3,1.3-14.5,6.8-19,7.5c-1.9,0.3-3.7,0.7-5.6,0.6c0-0.8,0-1.6,0-2.4c4.5,0,8.7-1.1,12.8-3
			c1.3-0.6,9.5-3.9,10.9-4.1C146.1,177,146.1,176.5,146,177.9z"/>
		<path class="st3" d="M88.5,167.4c4.1,2.1,9.3,3.7,13.9,3.8c-0.1,0.9,0.4,1.1,0,1.9c-4.7-0.2-10.7-1.6-15-3.4
			C87.7,169,88.1,168.2,88.5,167.4z"/>
		<path class="st3" d="M64,68.5c-2.8,2.6-7.6,7.4-9.9,10.4c-0.9,0-1.5-0.4-2.4-0.5c1.6-2.9,5-6,7.4-8.2c0.7-0.7,2.3-2.1,3.1-2.7
			C62.9,67.8,63.5,67.9,64,68.5z"/>
		<path class="st3" d="M126.9,167.6c3.5-0.1,8.2-2,11.5-3c0.4,0.7,0.6,1.2,0.9,1.9c-3.9,1-9,3.4-13.2,3.5
			C126.1,169.1,126.4,168.3,126.9,167.6z"/>
		<path class="st3" d="M107.1,63.3c-3.8,0-15.7,5.4-19.4,6.6c-1-0.5-1.4-0.5-2.4-0.9c5.2-2.8,17.1-7.1,21.8-7.6
			C107.2,62.2,107.3,62.2,107.1,63.3z"/>
		<path class="st3" d="M94.1,160.3c2.5,1.8,4.9,3.8,8.3,3.7c-0.1,0.8,0.2,1.7,0,2.5c-3.8-0.1-7.6-1.5-9.6-5
			C93.1,161,93.5,160.6,94.1,160.3z"/>
		<path class="st3" d="M172.5,78.5c-1.8-2.4-3.6-4.9-5.4-7.3c-0.4-0.5-1.8-2.7-2.2-3.2c0.4-0.6,1.3-0.2,1.9-0.5
			c2.1,2.8,5,6.3,7.1,9.1c0.3,0.5,1.1,1.3,1.4,1.8C174.6,78.7,173.4,78.6,172.5,78.5z"/>
		<path class="st3" d="M70.8,72.3c-1,0.5-2,0.9-3,1.4c-1.5,0.8-2.9,2.9-3.3,4.6c-0.8,0-1.5,0-2.4,0c0.3-2.9,3-6,5.2-7.6
			C68.7,71.2,69.5,71.6,70.8,72.3z"/>
		<path class="st3" d="M126.9,160.8c2.1-0.5,5.6-1.8,7.8-2.4c0.7,0.7,1,1.5,1.4,2.4c-2.6,0.6-6.5,1.9-9.1,2.5
			C126.9,162.5,126.9,161.7,126.9,160.8z"/>
		<path class="st3" d="M158.3,78.9c-0.7-1.9-3.2-3.4-4.1-5.1c0.8-0.8,1.8-0.8,2.8-1c1,2.1,3.8,3.7,5.1,5.6
			C160.9,78.5,159.5,78.8,158.3,78.9z"/>
		<path class="st2" d="M117,201.1c-1.3,0-2.4-0.4-3.7-0.4c-0.6-1.1-1.3-1.6-1.8-2.7c1.4,0,2.8,0.3,4.2,0.3
			C116.1,199.3,116.6,200,117,201.1z"/>
		<path class="st3" d="M77.8,74.6c-1.2,1.1-4.8,3.3-5.7,4.7c-1-0.2-1.8-0.3-2.8-0.5c1.4-1.1,4.8-4.1,6.2-5.2
			C76.5,73.7,77,73.9,77.8,74.6z"/>
		<path class="st2" d="M108,170.1c1.3-0.1,2.6-0.3,3.9-0.4c0.1,0.8,0.1,1.6-0.3,2.3c-1.4,0.2-2.9,0.3-4.3,0.5
			C107.2,171.6,107.5,170.8,108,170.1z"/>
		<path class="st2" d="M112.3,166.2c-1.1,0.1-2.3,0.3-3.4,0.4c0.1-1,0.3-1.9,0.8-2.8c1,0,2.1,0,3.1,0
			C112.9,164.6,112.7,165.4,112.3,166.2z"/>
		<path class="st2" d="M116.6,193.9c-1.4,0-3.7,1.1-5.1,1.2c0-0.7-0.3-0.5-0.3-1.2c1.3,0,5.5-2.3,6.7-2.7
			C118.1,192,116.4,193.2,116.6,193.9z"/>
		<path class="st2" d="M112,186.6c-1.3-0.1-2.6-0.1-3.9-0.2c0.1-0.8,0.2-1.7,0.3-2.5c0.7,0,1.5,0,2.2,0
			C111.1,184.8,111.6,185.7,112,186.6z"/>
		<path class="st3" d="M100.9,157.1c-1.2-0.2-2.3-0.5-3.5-0.7c-0.3-0.1-0.4-0.3-0.3-0.5c0.1-0.2,0.3-0.4,0.4-0.6
			c1.9,0.2,1.9,0.2,3.8,0.4c0.1,0.4,0.2,0.7,0.2,1.1C101.5,157,101.2,157.2,100.9,157.1z"/>
		<path class="st3" d="M148.9,75.9c0.3,1.1,2.3,2.4,2.8,3.5c-0.8-0.2-1.9-0.1-2.8-0.5c-0.9-0.4-1.3-1.7-2.4-1.9
			C147.9,76,147.9,76.3,148.9,75.9z"/>
		<path class="st2" d="M110.7,153.9c0.8,0,1.5,0,2.3,0c0.2,0.7,0.2,1.4,0,2.1c-0.7,0-1.5,0-2.2,0.1
			C110.8,155.3,110.8,154.6,110.7,153.9z"/>
	</g>
	<path class="st4" d="M99.2,151.5c-0.6,0-1.1-0.1-1.7-0.1c0.3-0.7,0.7-1.5,1-2.4C99.1,149.9,99.2,150.7,99.2,151.5z"/>
	<path class="st4" d="M43.9,53c0.2,0,0.3,0,0.4,0c0.8,0.1,1.7-0.4,2.4,0.3c0.1,0.1,0,0.5,0,0.5C45.7,53.8,44.8,53.8,43.9,53z"/>
	<path class="st1" d="M51.6,83.2c-0.3,0-0.5,0.1-0.8,0.1C51,82.8,51.3,82.9,51.6,83.2z"/>
	<path class="st4" d="M122.3,51.7c0.1,0.1,0.2,0.2,0.3,0.4C122.5,52,122.4,51.9,122.3,51.7z"/>
	<path class="st5" d="M122,210.6c-18.7,0-37.6,0-55.2,0c1.5,1.3,5.3,4.3,7.1,5.2c2.8,1.4,2.9,1.6,4.7,1.9
		c12.7,1.9,19.7,1.1,34.6,2.3c9.4-1.3,13.7-1.8,20.1-1.2c4.5,0.4,8.5-0.6,12.4-2.5c4.7-2.3,9.5-3.5,14.7-3.2
		c1.2,0.1,6.2-1.8,7.3-2.5C153.2,210.6,137.6,210.6,122,210.6z"/>
	<path class="st2" d="M195.8,58c-2.1-1.4-3.8-3.3-5.7-5c-0.2-0.2-0.4-0.4-0.5-0.6c-0.8-1.1-1.7-2.2-2.5-3.3c2.5,0,5,0,7.5-0.1
		c1.1,0,1.3,0.3,1.3,1.3C195.8,52.9,195.8,55.4,195.8,58z"/>
	<path class="st2" d="M39.5,52.1c-1.6,0.3-2.2,1.8-3.2,2.7c-1,0.9-1.8,1.9-2.7,2.8c0-2.5,0-5-0.1-7.5c0-1,0.3-1.3,1.3-1.2
		c2.4,0.1,4.7,0,7.1,0.1C41.2,50.2,39.6,50.6,39.5,52.1z"/>
	<path class="st5" d="M83.1,6.6c-4,1.3-7.8,3-11.4,5.2c-8.5,4.9-16.9,9.9-25.2,15.3c-3.7,2.4-6.9,5.2-9.5,8.8
		c-5.1,7-9.9,14.3-15.4,21.1c-4.2,5.2-8.7,10.1-12.3,15.7c-4.5,7-6.5,14.5-5.2,22.8c0.2,1.1,0.5,2.2,0.3,3.3
		c-1.5,7.6-1.7,15.2-0.2,22.8c2.7,13.8,6.1,27.4,12.6,40c1.3,2.6,2.4,5.3,3.3,8c2.2,6.7,8.3,14.9,13.6,19.6c0-7.7,0-13.1,0-20.8
		c-3.5-6.7-9.4-18-12.7-24.7c-2.3-4.7-2.7-9.9-2.8-15.1c-0.1-8.8-0.8-17.5-0.5-26.3c0.2-6,0.3-12,0.7-18c0.5-7.1,3.7-13.1,8-18.6
		c1.5-1.9,24.3-25.6,27.9-28.6C60.4,32,67,27.5,73.8,23.3c5.3-3.3,11.1-5.4,17.1-7.2c2.6-0.8,5.4-0.6,8-0.7
		c6.6-0.3,13.2-0.4,19.8-0.8c6.5-0.4,12.7,1.2,19,2.1c3.3,0.5,6.8,0.2,10,0.9c8.7,1.9,16,6.5,22.5,12.5c5.3,4.9,9.7,10.6,14.3,16.1
		c0.2,0.2,21.4,25.2,23.3,32.1c1.6,5.8,2.4,11.7,3.6,17.6c0.5,2.4,1,4.8,2.3,6.9c2.6,4.1,2.7,8.4,1.4,12.9
		c-3.6,12.9-7.5,25.8-10.8,38.8c-1.5,5.7-4,8.1-8.6,14.7c-4.6,7.8-6.2,14.2-13,17c-5.7,2.3-9.1,3.6-14.3,7.8
		c-2.4,1.9-3.8,1.4-8.1,4.7c-3.8,2.4-9.4,5.4-14.8,6.3c-3.5,0.6-8.2,1.2-11.7,1.7c0,0-8.6,1.3-17.5,2.7c-0.2-0.1-0.5-0.2-0.6-0.1
		c-2.4,2-5.1,0.5-7.7,0.7c-1.5,0.1-2.8-0.7-3.9-1.6c-5.1-0.2-10.1-0.3-15.2-0.6c-7-0.4-11.8-4.1-17.6-7.8
		c-10.6-6.6-21.3-14.2-30.4-22.8c-2.9-2.7-5-6.1-7.2-9.4c0,7,0,14-0.1,21c9.1,7.4,19.1,13.2,29.1,19.2c1.6,0.9,2.4,1.4,3.9,2.4
		c10.9,0,21.8-0.1,32.6-0.1c23.2-0.2,46.2-0.4,69.6-0.4c5-3.8,11.4-6.4,16.4-10.3c0.5-0.4,1-0.7,1.4-1.1c2.5-2.7,6.4-3.6,9.6-4.7
		c1.9-0.9,3.3-3.7,4-4.8c1.7-3.1,2.8-6.4,3.9-9.7c0.6-1.7,1.5-2.9,3.4-3.1c1.2-0.1,2-0.8,2.1-2c0.2-4.8,2.8-8.1,6.6-10.7
		c1.4-0.9,1.9-2.2,1.9-3.9c0.1-3.8,0.3-7.6,0.9-11.4c1.6-9.8,4.4-19.2,7.9-28.5l-1.5-12.2c-2.2-2.8-2.8-5.9-1.9-9.3
		c1-3.9,0.9-7.7-0.5-11.5c-0.9-2.5-1.6-5.2-2.3-7.8c-2.8-11-7.5-20.9-15.7-29c-2.4-2.3-4.3-5.1-5.1-8.4c-0.6-2.4-2-3.6-4.3-4.1
		c-2.5-0.5-4-2-4.4-4.5c-0.5-3.1-2.2-5.4-4.7-7.2c-5.9-4.3-11.7-8.8-17.6-13.2c-2.9-2.2-6.1-3.7-9.7-4.2c-5.6-0.6-11.2-1.2-16.6-3.2
		c-5.8-2.1-11.8-3.1-17.8-3c-9,0.1-17.9,0.5-26.9,1.1C92.8,4.1,87.9,5,83.1,6.6z"/>
	<path class="st6" d="M179.8,52.1"/>
	<path class="st6" d="M41.3,51.9"/>
	<path class="st7" d="M63.6,195.4c0.2-1,1.5-1.8,2.3-2.1c3.8-1.7,4.7-5.1,4.9-8.7c0.4-8.3,2.6-15.9,8.1-22.3
		c0.2-0.3,0.4-0.6,0.7-0.7c3.7-2.7,5.6-7,8.6-10.4c0.7-0.8,0.9-1.9,1-3c0.7-7,3.6-13.3,7.4-19c3.1-4.5,3.9-9.7,5.5-14.7
		c1.9-6.1,0-11.7-2.1-17.3c-0.7-1.9-1.4-3.7-2.2-5.6c-1-2.6-3-4.1-5.8-3.8c-3.9,0.4-7.7-0.5-11.5-1c-2.2-0.3-4.4-0.5-6.6-0.1
		c-3.5,0.5-6.8,0.1-10.1-0.7c-5.2-1.3-10.3-1.7-15.7-1.1c-3.5,0.4-6.8-1-10.2-1.5c-1-0.2-1.8-2.1-2.8-2.2c-0.2-1.1-0.3-1.3,0-2.4
		c1.2-0.6,3-1.1,4.2-0.9c1,0.1,2-0.1,2.9-0.7c2.9-1.9,5.8-1.7,8.6,0.3c1.1,0.8,2.3,1,3.7,0.9c5-0.3,10-0.7,15,0.2
		c4.5,0.8,8.8,0.7,13.3-0.6c-2.1-1.6-4.2-3.2-6.7-3.7c-4.7-1-8.7-3.2-12.6-5.9c-3.8-2.6-7.8-4.4-12.3-5.7c-4.1-1.1-7.7-3.5-10.9-6.3
		c0.2-0.6,0.5-3.2,1-3.6c1,0.3,0.8,3.7,1.6,4.2c3,1.6,5.6,3.9,9,4.6c3.3,0.7,6.5,1.9,9.2,3.8c5.8,4.1,12.2,6.7,18.9,8.8
		c0.1,0.2,0.4,0.4,0.6,0.2c0.2-0.3-0.2-0.3-0.4-0.4c-0.3-1.1-2-1.5-1.4-3.3c2,1.2,3.1,3,4.9,4.2c1.7,1.2,3.8,1.5,6.1,2.6
		c-2.2,1.1-3.5-0.5-5.4-0.3c1.9,0.8,3.2,2.3,5.1,1.1c3.7-2.3,7.7-2.7,11.9-1.6c1,0.3,1.8,0.2,2.4-0.9c-3.2-3.1-7-3.6-11.1-3.3
		c0,0.8,1.1,1.2,0.3,2c-0.6,0.1-1.1-0.4-1.5-0.8c-2.2-2-4.7-3.5-7.5-4c-4.8-0.8-8.9-2.7-13.1-5.1c-4.2-2.4-9-3.6-13.6-5.2
		c-1.5-0.5-2.5-1.2-2.8-3c-0.2-1.4-1-2.5-2.7-2.7c-0.1,1.1,1.1,2.2-0.4,3.5c-0.4-2.6-2.5-3-4.4-3.5c-1.2-0.3-2.4-0.7-3.5-1.3
		c0.4-0.1,0.9-0.3,1.3-0.4c0.5,0,1-0.1,1.6-0.1c0.9,0.9,1.8,0.8,2.8,0.1c0.3,0,0.5,0,0.8,0c0.2,0,0.3,0,0.5,0c0.6,0,1.3,0,1.9,0.1
		c1.3,1,3.2,1.6,3.4,3.4c0.2,2.1,1.5,2.5,3.1,3.1c5.8,2,11.7,3.7,16.9,7.2c1.5,1,3,1.8,4.8,1.8c3,0.1,5.7,1.2,8.3,2.6
		c1.2,0.6,2.5,1,3.9,0.9c4.4-0.3,8.4,1,12,3.5c1.7,1.2,4.2,0.6,4.9-1c0.5-1.3,0.8-2.9-0.1-4.2c-1.4-2.2-2-4.7-2.4-7.2
		c-0.7-4.4,1.4-7.5,4.8-10.1c1.8,0,3.6,0,5.4,0c0.4,0.9,1.4,1.2,2,1.9c1.3,1.3,2.2,2.7,2.5,4.5c0.7,3.9-0.3,7.5-2.2,10.9
		c-0.8,1.4-0.7,3.9,0.4,4.8c1.5,1.3,2.9,1.4,4.7,0.3c2-1.3,4-2.7,6.3-2.8c5.1-0.3,9.8-1.9,14.6-3.3c4-1.1,7.7-2.3,11.2-4.4
		c1.4-0.9,3-1.4,4.6-2c3.3-1.2,6.6-2.4,10-3.6c0.7-0.2,1.7-0.4,1.7-1.2c-0.1-2.6,1.9-3.6,3.5-5c0.7,0,1.5,0,2.2,0c0.2,0,0.3,0,0.5,0
		c0.3,0,0.5,0,0.8,0c0.9,0.6,1.4,0.8,2.2-0.3c1.1,0,2.5,0.2,3.6,0.2c0,0.1-0.1,0.1-0.1,0.2c-2.5,2.1-6.8,0.9-8.3,4.8
		c-1.2-1.1,0-2.2-0.4-3.3c-1.5,0.4-2.3,1.6-2.5,3c-0.2,1.2-0.8,1.9-1.9,2.3c-0.9,0.3-1.7,0.7-2.6,1c-6,1.9-12,4-17.3,7.7
		c-0.8,0.5-1.7,0.7-2.6,0.8c-4.8,0.6-9.2,2.1-12.9,5.4c-0.3,0.3-0.6,0.6-1,0.4c-0.7-0.6,0.4-1.2-0.1-1.8c-4.1-0.3-7.8,0.4-10.9,3.4
		c0.8,0.8,1.6,1.1,2.6,0.8c1.2-0.4,2.5-0.5,3.7-0.6c3-0.2,5.7,1,8.5,2c1.6,1.3,2.8,0,4-0.8c0.2,0,0.3-0.1,0.1,0
		c0.2-0.1,0.1,0-0.1,0.1c-1.4-0.1-2.6,0.9-4,0.8c-0.2-0.9,0.2-1.2,1-1.4c3.3-0.8,5.9-2.6,8.1-5.2c0.4-0.5,0.8-1,1.6-0.4
		c-0.1,1.1-1.2,1.6-1.5,2.9c1.5-0.6,2.8-1.2,4.2-1.5c3.6-0.8,6.9-2.3,10-4.4c4.7-3.2,9.8-5.5,15.2-7.3c3.6-1.1,7.8-4,9.4-8.3
		c0.6,0.3,0.5,1.9,0.5,2.4c0,0.7,0.1,1.5-0.5,1.9c-3.4,2.2-6.5,4.8-10.5,5.8c-3.6,0.9-6.8,2.3-9.9,4.3c-4.7,2.9-9.2,6-14.8,7.2
		c-2.3,0.5-4.4,1.9-6.5,3.9c3.7,0.1,6.7,1.6,10.1,0.8c5.8-1.4,11.8-1,17.7-0.7c1.7,0.1,3.2,0.1,4.7-1c2.4-1.8,5-1.8,7.7-0.4
		c1,0.5,2,1.3,3.1,1.1c1.9-0.2,2.8,0.4,4.1,1.7c0.2,0.3,0.1,0.6,0,0.9c-1.4,0.5-1,2.3-2.5,2.6c-3.5,0.6-6.9,2-10.4,1.6
		c-4.8-0.6-9.6-0.3-14.3,0.8c-3.4,0.8-6.9,1.6-10.5,1.1c-2.4-0.3-4.8-0.3-7.2,0c-3.9,0.5-7.7,1.6-11.7,1.1c-2.6-0.4-4.6,1.1-5.7,3.6
		c-1.1,2.6-2.1,5.2-3,7.8c-1.6,4.5-3,8.9-1.7,13.8c1.6,5.9,2.8,11.7,6.3,16.9c3.7,5.5,6.4,11.7,7,18.5c0.1,1.1,0.5,2,1.2,2.9
		c2.8,3.6,5.1,7.6,8.7,10.6c1.3,1.1,2.3,2.6,3.2,4.1c3.6,5.8,5,12.3,5.4,19c0.2,3.4,1.2,6.5,4.7,8.1c0.9,0.4,2,0.9,2.1,2.2
		c0,0.5-0.4,0.7-0.9,0.9c-0.2-1.1-1.1-1.6-2-2c-3.3-1.6-4.9-4.3-5.2-7.9c-0.2-2.4-0.4-4.8-0.8-7.1c-1.3-7.8-4.6-14.5-10.7-19.7
		c-3-2.6-4.7-6.4-6.7-9.8c-0.2-0.3-0.2-0.6-0.2-1c-0.5-5.1-2.4-9.8-4.6-14.4c-0.9-1.9-1.8-3.8-3.8-5.5c0.1,7,0,13.6-0.9,20.1
		c-0.1,0.7,0.2,1.3,0.6,1.8c1.7,2.1,3,4.5,4.5,6.8c1,1.5,1.6,3.7,4.3,3c0.8-0.2,1.8,1.1,2.8,0.6c1.2-0.5,0.4-2,1.1-2.9
		c0.1-0.1,0.2-0.1,0.6-0.2c0.8,1.1,0.8,2.3,0.1,3.5c-0.6,1.1-1.7,1.1-2.8,0.9c-0.6-0.1-1.2-0.2-1.8-0.3c-0.1,0-0.2-0.1-0.3-0.2
		c0.1,0.1,0.1,0.2,0.2,0.3c2.9,5.4,5.1,11.1,9.3,15.8c4.9,5.4,6.7,12.4,8.6,19.3c0.4,1.4,1.5,1.9,2.9,1.7c-0.6,0.5-1.9,1.4-2.7,1.3
		c-0.5-0.6-1.4-1-1.4-1.9c-0.2-2.4-1.5-4.6-2-6.9c-1.1-5.4-4-9.8-7.4-14c-2.1-2.6-3.9-5.4-5.2-8.5c-0.8-2-1.6-4.2-3.1-5.8
		c-2.8-3-5-6.4-7.1-9.9c-0.4-0.6-0.6-1.5-1.6-1.4c-1.5,6.2-2.2,12.4-1.9,18.7c0.2,3.1-0.1,6.3-0.6,9.4c-1,5.1-2.6,10.1-3.8,15.1
		c-1,4.1-1.4,8,1.2,11.7c0.5,0.7,0.7,1.7,1,2.6c-0.5,0-1,0-1.5,0.1c0.2-1-0.3-1.9-0.8-2.6c-2.4-3.6-2.4-7.4-1.3-11.3
		c0.5-1.7,0.8-3.4,1.3-5c2-6.9,3.8-13.9,3.4-21.2c-0.1-1.7-0.3-3.4-0.2-5.2c0.3-3.9,0.9-7.7,1.7-11.4c0.3-1.4,0.2-2.6-0.8-3.7
		c-4.2-4.3-8.9-8.2-11.9-14c-3,5.7-7.4,9.5-11.6,13.7c-1.4,1.4-1.5,2.9-1.1,4.6c1.2,5.4,1.7,10.8,1.5,16.3
		c-0.2,3.5,0.1,6.9,0.7,10.4c1,5.6,3,11.1,4.2,16.7c0.7,3.4,0.8,6.7-1.2,9.8c-0.6,0.9-1.3,1.9-1.3,3.1c-0.4,0-0.8-0.1-1.2-0.1
		c0-1.1,0.4-2,1-2.8c2.3-3.2,2.1-6.8,1.3-10.4c-0.4-1.9-0.9-3.7-1.5-5.6c-1.8-6.4-3.6-12.9-3.2-19.6c0.3-5.9-0.4-11.7-1.6-17.5
		c-0.1-0.6-0.1-1.2-0.8-1.6c-1.8,1.7-2.4,4-3.9,5.8c-3.7,4.5-7,9.2-9.2,14.7c-0.8,2.1-2.4,3.9-3.9,5.6c-4.8,5.4-7,12.2-8.8,19
		c-0.3,1.1-1.1,2.7-1.9,3.5c-0.4,0-1.2,0-1.4-0.5c0.4-0.5,0.9-0.9,1.8-2.3c0.8-3.2,1.6-6.5,2.7-9.6c1.4-3.7,3.4-7.4,6.2-10.4
		c4.1-4.4,6.2-10.1,8.9-15.3c0.1-0.1,0.3-0.3,0-0.4c0,0-0.2,0.1-0.3,0.2c-0.4,0.1-0.9,0.2-1.3,0.3c-2.3,0.5-3.4-0.4-3.4-2.7
		c0-0.5,0.1-0.9,0.1-1.4c1.5-0.5,1,0.7,1.3,1.4c0.3,0.8,0.3,1.7,1.6,1.6c3.3-0.3,5.7-1.8,7.1-5c0.8-1.9,2.1-3.6,3.4-5.1
		c0.9-1.1,1.2-2.2,0.9-3.5c-0.9-5.7-1.1-11.4-1.1-17.1c0-0.5,0.3-1.1-0.5-1.5c-3.7,5.8-6.6,11.8-7.5,18.7c-0.2,1.6-0.6,3.2-1.7,4.4
		c-1.7,1.7-2.7,3.8-3.7,5.9c-5.2,4-9.1,8.9-11,15.3c-1.3,4.2-1.9,8.5-2.1,12.9c-0.2,3.4-1.8,6.1-4.8,7.8c-0.8,0.4-1.9,1.2-2.6,1.7
		C64.2,195.9,63.7,195.8,63.6,195.4z M130.5,88.7c1.4-1,2-2.7,3.1-4.1c1.5-1.8,3.1-3.4,4.8-4.9c-2.5-2.4-10.2-3.1-13-1.2
		c-2.6,1.7-5.9,1-8.5,3.3c-1.1-3.7,1.5-6.6,0.5-10.1c-2,1.8-4.1,1.6-6,0.1c-0.9,3.5,1.7,6.4,0.5,9.7c-4-1.8-8-2.6-11.9-3.7
		c-3.3-1-6.5,0.3-9.6,1.6c0.2,0.8,0.6,1.1,1,1.4c2.6,2.2,4.4,5.1,6.6,7.6l0,0c-0.2,0.6,0.1,1,0.4,1.5c2.2,4.3,3.3,8.9,4.8,13.3
		c1.2,3.5,1.4,7,0.4,10.6c-0.9,3.2-0.7,3.2,2.2,4.8c2.5,1.3,2.6,4.5,3.5,6.3c-2.4-1.9-2.5-6.1-6.7-6c-4.2,9.5-2.8,19.5-1.6,29.8
		c5.6-4.8,10.5-9.6,13.5-16.5c3,7.1,8,11.7,13.6,16.6c0.9-10.5,2.6-20.5-1.7-29.7c-4.5-0.3-4.4,4-6.8,5.7c0.9-2.5,1.1-5.4,4.1-6.6
		c1.7-0.6,2.3-1.7,1.8-3.6c-0.8-3.1-1.5-6.2-0.4-9.4c1.7-5.1,3-10.3,5.3-15.1C130.5,89.6,130.8,89.2,130.5,88.7L130.5,88.7z
		 M94.7,86.6c-2.2-5-7.2-7.8-12.4-6.9c-4.3,0.7-8.5,1.3-12.9,0.2c-2.3-0.6-4.6-0.4-7-0.4c-3.1,0-6.1,0.1-9.2,0.2
		c-1.5,0-2.7-0.3-3.9-1.3c-0.9-0.8-1.9-1.1-3.2-0.7c0.8,0.8,1.9,1.3,1.1,2.8c-1.8-1.8-4.1-1.8-6.2-1.2c-1.3,0.3-2.9,0.4-4-0.3
		c-0.6,0.5-0.3,1.1-0.6,1.9c3.5,2.5,7.7,2.9,11.7,2.8c5-0.2,10-0.4,14.9,1c4.1,1.1,8.3,1.2,12.5,0.8c1.2-0.1,2.4-0.5,3.6-0.1
		C84.2,86.8,89.3,86.8,94.7,86.6z M134.2,86.6c3.4-0.3,6.6,0.3,9.9-0.2c2.7-0.4,5.3-1.6,8.1-1.2c4.7,0.6,9.3,0.5,13.9-0.7
		c4.8-1.3,9.6-1.2,14.5-0.8c3.4,0.3,6.9-0.6,10.2-1.8c1.3-0.5,2.1-1.5,0.9-2.5c-3.6,0.6-7.2-1.9-10.3,1.2c-0.2-1.8,0.7-2.4,1.6-3.1
		c-1.3-0.2-2.3-0.1-3.2,0.7c-1.4,1.1-2.9,1.4-4.7,1.4c-4.7-0.1-9.5-0.7-14.2,0.1c-4.9,0.8-9.7,0.8-14.7,0
		C141.3,78.7,136.2,81.9,134.2,86.6z M120.5,61.2c0-0.6,0.1-1.2,0-1.8c-0.4-3.2-2.7-5.6-5.6-5.9c-2.6-0.3-5.7,1.7-6.3,4.5
		c-1,4.3-0.2,8.4,2.5,11.9c2,2.6,4.8,2.5,6.8-0.2C119.8,67.1,120.4,64.2,120.5,61.2z M104.3,77.6c2.2,0.5,4.3,1,6.5,1.7
		c0.2-1.6-0.3-2.9-0.9-4.3C108.2,76.4,106.2,76.8,104.3,77.6z M118.7,74.9c-0.1,1.8-1,3-0.5,4.5c2.1-0.8,4.3-1.1,6.4-1.8
		C122.7,76.9,120.7,76.4,118.7,74.9z M148.4,74.5c-0.1-0.1-0.1-0.1-0.1-0.1c-0.1,0-0.2,0.1-0.4,0.1c0,0,0.1,0.1,0.1,0.1
		C148.2,74.5,148.3,74.5,148.4,74.5z"/>
	<path class="st8" d="M35.2,51.2c-0.1,0.1-0.2,0.2-0.3,0.2C34.8,51.2,34.9,51.1,35.2,51.2z"/>
	<path class="st9" d="M80,74.3c-6.7-2.1-13.1-4.7-18.9-8.8c-2.7-1.9-5.9-3.1-9.2-3.8c-3.4-0.7-6-3-9-4.6c-0.8-0.4-0.6-3.9-1.6-4.2
		c0.5-1,1.4,0.4,2.2-0.3c1.1,0.6,2.3,1,3.5,1.3c1.9,0.5,3.9,0.8,4.4,3.5c1.5-1.3,0.3-2.3,0.4-3.5c1.7,0.2,2.5,1.3,2.7,2.7
		c0.3,1.7,1.3,2.4,2.8,3c4.6,1.6,9.4,2.8,13.6,5.2C75,67.1,79.2,69,84,69.8c2.8,0.5,5.3,2,7.5,4c0.4,0.4,0.9,0.8,1.5,0.8
		c0.7-0.8-0.3-1.2-0.3-2c4.1-0.2,8,0.3,11.1,3.3c-0.6,1.1-1.4,1.2-2.4,0.9c-4.2-1.1-8.2-0.6-11.9,1.6c-1.9,1.1-3.2-0.3-5.1-1.1
		c1.9-0.2,3.2,1.4,5.4,0.3c-2.3-1.1-4.4-1.4-6.1-2.6c-1.7-1.2-2.9-3-4.9-4.2c-0.6,1.8,1.1,2.2,1.4,3.3C80.1,74.2,80,74.2,80,74.3z"
		/>
	<path class="st9" d="M85.3,158.5c0,0.5-0.1,0.9-0.1,1.4c0,2.4,1.1,3.2,3.4,2.7c0.4-0.1,0.9-0.2,1.3-0.3c0.1,0.1,0.2,0.2,0.2,0.2
		c-2.7,5.2-4.7,10.9-8.9,15.3c-2.8,3-4.8,6.7-6.2,10.4c-1.1,3-1.9,6.3-2.7,9.6c-0.2,0.7-1.4,1.8-1.8,2.3c-2.5-0.9-3.9-2.7-5.9-4.5
		c0.8-0.5,1.5-1,2.3-1.5c3-1.7,4.6-4.3,4.8-7.8c0.3-4.4,0.8-8.7,2.1-12.9c2-6.3,5.8-11.3,11-15.3C85.2,158.4,85.3,158.4,85.3,158.5z
		"/>
	<path class="st9" d="M139.7,78.2c-2.7-1-5.4-2.2-8.5-2c-1.3,0.1-2.5,0.2-3.7,0.6c-1,0.3-1.8,0-2.6-0.8c3.1-3,6.8-3.7,10.9-3.4
		c0.5,0.6-0.6,1.3,0.1,1.8c0.4,0.2,0.7-0.1,1-0.4c3.7-3.3,8.1-4.8,12.9-5.4c1-0.1,1.9-0.3,2.6-0.8c5.3-3.7,11.2-5.8,17.3-7.7
		c0.9-0.3,1.7-0.7,2.6-1c1.1-0.4,1.7-1.1,1.9-2.3c0.2-1.4,1-2.5,2.5-3c0.4,1.1-0.8,2.2,0.4,3.3c1.5-3.9,5.8-2.7,8.3-4.8
		c0.1,0,0.2,0,0.3-0.2c0.1,0,0.3,0,0.4,0.1c0.3,0.7,1.4-0.2,1.5,0.6c-1.5,4.3-5.8,7.2-9.4,8.3c-5.5,1.7-10.5,4.1-15.2,7.3
		c-3.1,2.1-6.4,3.6-10,4.4c-1.4,0.3-2.7,1-4.2,1.5c0.3-1.3,1.5-1.9,1.5-2.9c-0.8-0.6-1.2-0.1-1.6,0.4c-2.2,2.6-4.8,4.4-8.1,5.2
		C140,77.1,139.5,77.4,139.7,78.2L139.7,78.2z"/>
	<path class="st8" d="M194.1,52.7c-0.1-0.2-0.1-0.4-0.2-0.6C194.2,52.3,194.3,52.5,194.1,52.7z"/>
	<path class="st8" d="M185.8,52.2c0,0.1-0.1,0.2-0.3,0.2c0-0.1,0-0.2,0.1-0.2C185.7,52.1,185.7,52.1,185.8,52.2z"/>
	<path class="st8" d="M50.4,52.1c-0.2,0-0.3,0-0.5,0C50.1,51.9,50.2,51.9,50.4,52.1z"/>
	<path class="st8" d="M178.6,52.1"/>
	<path class="st8" d="M35.7,210c0.1,0.2,0.2,0.3,0.3,0.5C35.7,210.5,35.6,210.3,35.7,210z"/>
	<path class="st8" d="M194.1,62.7c-0.1-0.2-0.1-0.4-0.2-0.6C194.2,62.3,194.2,62.5,194.1,62.7z"/>
	<path class="st8" d="M193.8,210.5c0.1-0.2,0.2-0.3,0.3-0.5C194.2,210.3,194.1,210.5,193.8,210.5z"/>
	<path class="st9" d="M164.1,196.5c-1.8,1.1-3.6,2.1-5.5,2.9c-1.4,0.2-1.9-0.4-2.2-1.8c-1.9-6.9-3.7-13.8-8.6-19.3
		c-4.2-4.7-6.3-10.5-9.3-15.8c0,0,0.1-0.1,0.1-0.1c0.6,0.1,1.2,0.2,1.8,0.3c1.1,0.2,2.2,0.3,2.8-0.9c0.7-1.2,0.6-2.3-0.1-3.5
		c-0.3,0.1-0.5,0.1-0.6,0.2c-0.6,0.9,0.1,2.3-1.1,2.9c-1,0.4-2-0.8-2.8-0.6c-2.7,0.6-3.3-1.5-4.3-3c-1.5-2.3-2.8-4.7-4.5-6.8
		c-0.4-0.5-0.7-1.1-0.6-1.8c0.9-6.5,1-13.1,0.9-20.1c2,1.7,2.9,3.6,3.8,5.5c2.2,4.6,4.2,9.2,4.6,14.4c0,0.3,0.1,0.7,0.2,1
		c2,3.4,3.7,7.2,6.7,9.8c6.2,5.3,9.5,11.9,10.7,19.7c0.4,2.4,0.6,4.8,0.8,7.1c0.3,3.6,1.9,6.3,5.2,7.9
		C163.1,194.9,163.9,195.4,164.1,196.5z"/>
	<path class="st10" d="M98.1,88.3c-2.2-2.6-4-5.5-6.6-7.6c-0.4-0.3-0.9-0.6-1-1.4c3.1-1.3,6.3-2.5,9.6-1.6c3.9,1.1,8,1.9,11.9,3.7
		c1.2-3.3-1.5-6.2-0.5-9.7c2,1.5,4,1.6,6-0.1c1,3.5-1.6,6.4-0.5,10.1c2.6-2.3,5.9-1.6,8.5-3.3c2.8-1.8,10.5-1.1,13,1.2
		c-1.7,1.5-3.4,3.2-4.8,4.9c-1.1,1.3-1.6,3-3.1,4.1c-0.1-0.5,0.4-1.1-0.5-1.6c-2,1.8-3.9,4-6.8,4.7c-2.8,0.7-5.6-0.3-8.5-1.1
		c0.4,1.7,1.5,2,2.5,2.2c4.5,1,8.6,0.2,12-3.2c0.4-0.4,0.7-1,1.4-1.1c0.2,0.5,0,0.9-0.2,1.3c-2.3,4.8-3.6,10-5.3,15.1
		c-1.1,3.2-0.3,6.4,0.4,9.4c0.5,1.9-0.1,3-1.8,3.6c-3,1.1-3.2,4-4.1,6.6c2.4-1.8,2.3-6.1,6.8-5.7c4.3,9.2,2.6,19.2,1.7,29.7
		c-5.5-4.9-10.6-9.6-13.6-16.6c-3,7-7.9,11.7-13.5,16.5c-1.1-10.3-2.5-20.2,1.6-29.8c4.2-0.1,4.4,4.1,6.7,6c-0.7-2.4-1-5-3.5-6.3
		c-2.9-1.5-3.7,0.5-2.7-2.7c1.3-3.9,1.3-9.1,0.1-12.7c-1.5-4.5-2.7-9.1-4.8-13.3C98.2,89.3,97.8,88.8,98.1,88.3
		c0.6,0.1,0.8,0.6,1.2,1c3.3,3.6,7.3,4.7,11.9,3.8c1.2-0.2,2.5-0.4,2.9-1.9c-0.8-0.7-1.3,0-1.9,0.2c-4.2,1.4-8,0.9-11.2-2.3
		c-0.5-0.5-0.9-1-1.4-1.4C98.5,86.7,98.1,87.1,98.1,88.3z M115.3,115.2c-0.1-0.6,0.2-1.6-0.8-1.6c-0.9-0.1-1,0.7-1.1,1.4
		c-0.1,0.7,0,1.6,0.9,1.7C115.2,116.7,115.3,115.9,115.3,115.2z"/>
	<path class="st9" d="M94.7,86.6c-5.3,0.3-10.5,0.2-15.6-1.3c-1.2-0.4-2.4,0.1-3.6,0.1c-4.2,0.3-8.4,0.3-12.5-0.8
		c-4.9-1.3-9.8-1.1-14.9-1c-4,0.1-8.2-0.3-11.7-2.8c0.3-0.8,0.6-1.3,1.2-1.7c1.1,0.7,2.1,0.5,3.4,0.1c2.1-0.6,4.4-0.6,6.2,1.2
		c0.8-1.5-0.4-2.1-1.1-2.8c1.3-0.4,2.3-0.1,3.2,0.7c1.1,1,2.4,1.3,3.9,1.3c3.1-0.1,6.1-0.1,9.2-0.2c2.3,0,4.7-0.1,7,0.4
		c4.3,1.1,8.6,0.6,12.9-0.2C87.5,78.7,92.5,81.6,94.7,86.6z M87.7,85.6c-1.7-1.1-3.8-0.8-5.5-1.4c-1.8-0.6-3.2-2.1-5.5-2.4
		C78.5,84.6,85.4,86.9,87.7,85.6z"/>
	<path class="st9" d="M134.2,86.6c2-4.8,7.1-7.9,12-7c4.9,0.9,9.7,0.9,14.7,0c4.7-0.8,9.5-0.2,14.2-0.1c1.7,0,3.3-0.3,4.7-1.4
		c0.9-0.7,1.9-0.9,3.2-0.7c-0.9,0.8-1.8,1.4-1.6,3.1c3.1-3.2,6.7-0.7,10.3-1.2c1.2,1,0.4,2.1-0.9,2.5c-3.3,1.1-6.7,2-10.2,1.8
		c-4.9-0.4-9.7-0.4-14.5,0.8c-4.6,1.2-9.2,1.3-13.9,0.7c-2.8-0.4-5.4,0.8-8.1,1.2C140.8,87,137.5,86.4,134.2,86.6z M141.2,86.1
		c3.8,0,7.1-1,10-3c0.4-0.3,1.1-0.6,0.6-1.2c-0.5-0.7-0.9-0.1-1.3,0.2c-2.2,1.5-4.6,2.5-7.4,2.7C142.5,84.9,141.6,84.8,141.2,86.1z"
		/>
	<path class="st9" d="M85.1,158.3c1-2.1,2-4.2,3.7-5.9c1.1-1.1,1.5-2.8,1.7-4.4c0.9-6.9,3.8-12.9,7.5-18.7c0.8,0.4,0.5,1,0.5,1.5
		c0,5.7,0.2,11.4,1.1,17.1c0.2,1.3,0,2.4-0.9,3.5c-1.3,1.6-2.6,3.2-3.4,5.1c-1.4,3.2-3.7,4.7-7.1,5c-1.3,0.1-1.3-0.8-1.6-1.6
		c-0.2-0.6,0.2-1.9-1.3-1.4C85.3,158.4,85.2,158.4,85.1,158.3z"/>
	<path class="st9" d="M120.5,61.2c-0.1,3-0.7,6-2.6,8.4c-2,2.7-4.8,2.9-6.8,0.2c-2.7-3.5-3.5-7.6-2.5-11.9c0.7-2.8,3.7-4.8,6.3-4.5
		c2.9,0.3,5.1,2.7,5.6,5.9C120.6,60,120.5,60.6,120.5,61.2z"/>
	<path class="st9" d="M104.3,77.6c1.9-0.9,3.9-1.2,5.6-2.6c0.5,1.5,1.1,2.7,0.9,4.3C108.6,78.7,106.5,78.1,104.3,77.6z"/>
	<path class="st9" d="M118.7,74.9c2,1.6,4,2,6,2.7c-2.1,0.7-4.3,0.9-6.4,1.8C117.7,77.8,118.6,76.6,118.7,74.9z"/>
	<path class="st9" d="M139.7,78.3c1.4,0,2.6-0.9,4-0.8l0,0C142.5,78.3,141.4,79.5,139.7,78.3C139.7,78.2,139.7,78.3,139.7,78.3z"/>
	<path class="st9" d="M148.4,74.5c-0.1,0-0.2,0.1-0.4,0.1c0,0-0.1-0.1-0.1-0.1c0.1,0,0.2-0.1,0.4-0.1
		C148.3,74.3,148.4,74.4,148.4,74.5z"/>
	<path class="st9" d="M143.8,77.5C143.9,77.4,144,77.3,143.8,77.5C144,77.4,143.9,77.4,143.8,77.5C143.7,77.4,143.8,77.5,143.8,77.5
		z"/>
	<path class="st9" d="M80.1,74.1c0.2,0.1,0.5,0.1,0.4,0.4c-0.1,0.2-0.4,0-0.6-0.2C80,74.2,80.1,74.2,80.1,74.1z"/>
	<path class="st9" d="M90,162.3c0.1-0.1,0.2-0.2,0.3-0.2c0.2,0.1,0.1,0.3,0,0.4C90.1,162.5,90,162.4,90,162.3z"/>
	<path class="st9" d="M138.5,162.5c-0.1-0.1-0.1-0.2-0.2-0.3c0.1,0.1,0.2,0.1,0.3,0.2C138.6,162.3,138.5,162.5,138.5,162.5z"/>
	<path class="st7" d="M119,168.5c0.8,1,1.5,2,2.8,2.7C119,171.2,118.2,170.4,119,168.5z"/>
	<path class="st7" d="M110.1,169.2c0.3,1.2-0.4,1.9-2.7,2.1C108.4,170.6,109.3,169.9,110.1,169.2z"/>
	<path class="st7" d="M98.1,88.3c0-1.1,0.5-1.5,1.4-0.7c0.5,0.4,0.9,0.9,1.4,1.4c3.3,3.1,7,3.7,11.2,2.3c0.6-0.2,1.1-0.8,1.9-0.2
		c-0.4,1.5-1.7,1.7-2.9,1.9c-4.6,0.9-8.7-0.2-11.9-3.8C98.9,88.9,98.6,88.4,98.1,88.3C98,88.3,98.1,88.3,98.1,88.3z"/>
	<path class="st7" d="M130.5,88.7c-0.7,0.1-1,0.7-1.4,1.1c-3.4,3.4-7.5,4.2-12,3.2c-1-0.2-2.1-0.5-2.5-2.2c2.9,0.8,5.6,1.7,8.5,1.1
		c2.9-0.7,4.8-2.9,6.8-4.7C130.9,87.6,130.4,88.2,130.5,88.7C130.5,88.7,130.5,88.7,130.5,88.7z"/>
	<path class="st7" d="M115.3,115.2c0,0.7-0.1,1.5-1,1.4c-0.9-0.1-1-1-0.9-1.7c0-0.6,0.2-1.4,1.1-1.4
		C115.5,113.6,115.3,114.6,115.3,115.2z"/>
	<path class="st7" d="M87.7,85.6c-2.3,1.3-9.2-0.9-11-3.8c2.3,0.3,3.7,1.8,5.5,2.4C84,84.8,86,84.4,87.7,85.6z"/>
	<path class="st7" d="M141.2,86.1c0.4-1.3,1.3-1.3,1.9-1.3c2.7-0.2,5.1-1.2,7.4-2.7c0.4-0.3,0.8-0.9,1.3-0.2
		c0.5,0.6-0.2,0.9-0.6,1.2C148.3,85.1,145,86.1,141.2,86.1z"/>
	<rect x="34.4" y="50.4" class="st11" width="160.1" height="160.1"/>
	<path class="st12" d="M34.2,51.9"/>
	<rect x="34.4" y="50.4" class="st13" width="160.1" height="160.1"/>
	<path class="st10" d="M106,209.7c-0.2,0-0.3-0.2-0.3-0.3c0.1-1.1,0.7-2,1.3-2.8c2-3.1,1.9-6.5,1.2-9.9c-1.2-5.7-3.2-11.1-4.2-16.8
		c-0.6-3.5-0.9-6.9-0.7-10.4c0.3-5.6-0.2-11-1.5-16.4c-0.4-1.7-0.3-3.3,1.1-4.7c4-4,8.3-7.9,11.3-13.3c0.1-0.2,0.4-0.2,0.5,0
		c3,5.6,7.6,9.4,11.7,13.7c1,1.1,1.1,2.4,0.8,3.8c-0.8,3.8-1.4,7.7-1.7,11.6c-0.1,1.8,0.1,3.5,0.2,5.2c0.4,7.4-1.4,14.4-3.4,21.4
		c-0.5,1.7-0.9,3.4-1.3,5.1c-1.1,4-1.1,7.8,1.3,11.4c0.4,0.6,0.7,1.2,0.8,1.9c-0.5,0.4-0.7,0.5-1.2,0.9c-0.2-0.1-0.4-0.1-0.6,0.1
		c-0.2,0-0.5,0-0.7,0c-0.2-0.3-0.3-0.3-0.5,0c-0.1,0-0.2,0-0.4,0.1c-0.2,0-0.3,0-0.5,0c-0.2,0-0.5,0-0.7,0c-0.4,0-0.9,0-1.3,0.1
		c-0.3-0.3-0.6-0.4-0.9-0.7c-0.2-1-0.1-2,0.3-3c0.4-1.3,0.8-2.6,0.3-3.9c-0.5-1.6-0.3-3.2,0-4.8c0.6-2.9,0.5-5.9,0.1-8.8
		c-0.6-4.6-1-9.1-0.3-13.6c0.2-1.5,0.7-2.9,0.7-4.4c-0.4-8.4-1.9-16.7-2.3-25.1c0-0.6-0.1-1.2-0.8-1.1c-0.7,0-0.7,0.7-0.7,1.2
		c-0.1,1.8-0.2,3.6-0.4,5.4c-0.5,3.9-0.7,7.9-1.5,11.8c-0.7,3.4-0.9,6.9-0.1,10.4c0.6,2.6,0.8,5.3,0.8,8c0,3.7-0.9,7.3-0.9,11
		c0,3.9,1.1,7.7,0.2,11.6c-0.1,0.6,0.1,1.3,0.4,2c0.4,1.2,0.5,2.3,0.4,3.5c0,0.1-0.1,0.3-0.3,0.3C110.1,210.2,108.1,209.9,106,209.7
		z M119,168.1c-0.7,1.9,0.1,2.7,2.8,2.8C120.5,170.1,119.8,169.1,119,168.1z M110.1,168.8c-0.8,0.7-1.7,1.4-2.7,2.2
		C109.8,170.8,110.5,170,110.1,168.8z"/>
	<path class="st7" d="M112.5,210c0.2-1.3,0.1-2.5-0.3-3.7c-0.2-0.6-0.5-1.3-0.4-1.9c0.9-3.9-0.2-7.7-0.2-11.5
		c0-3.7,0.9-7.3,0.9-10.9c0-2.7-0.2-5.3-0.8-7.9c-0.8-3.4-0.6-6.9,0.1-10.3c0.8-3.9,1-7.8,1.5-11.7c0.2-1.8,0.3-11.8,0.4-13.6
		c0-0.5,0-1.2,0.7-1.2c0.7,0,0.8,0.6,0.8,1.1c0.4,8.3,1.8,24.7,2.3,33c0.1,1.4-0.4,2.9-0.7,4.3c-0.8,4.5-0.3,9,0.3,13.5
		c0.4,2.9,0.4,5.9-0.1,8.8c-0.3,1.6-0.5,3.1,0,4.7c0.4,1.3,0.1,2.6-0.3,3.9c-0.4,1.2-0.5,2.3-0.1,3.5c-0.4,0.3-0.8,0.4-1.2,0
		c-0.2-2.2,0.7-4.4,0.4-6.6c-0.4-2.3-0.3-4.5,0.1-6.7c0.4-2.3,0.3-4.5,0.1-6.8c-0.6-5.4-1.1-10.9,0.2-16.3c0.4-2,0.5-4,0.2-6.1
		c-0.4-2.7-1-5.4-1.1-8.1c-0.1-1.3,0.1-2.9-0.7-4.7c-0.4,2.4-0.6,4.3-0.9,6.2c-0.6,4.3-1.5,8.6-0.6,12.9c0.9,4.2,0.9,8.5,0.4,12.7
		c-0.3,3-1,6-0.4,9c1,4.9-0.1,9.9,0.8,14.9c-0.4,0-0.8-0.1-1.2-0.1C112.5,210.2,112.5,210.1,112.5,210z"/>
</g>
</svg>
